<?xml version="1.0" encoding="iso-8859-1"?>
<!-- Generator: Adobe Illustrator 25.0.0, SVG Export Plug-In . SVG Version: 6.00 Build 0)  -->
<svg version="1.1" id="Calque_1" xmlns="http://www.w3.org/2000/svg" xmlns:xlink="http://www.w3.org/1999/xlink" x="0px" y="0px"
	 viewBox="0 0 612 792" style="enable-background:new 0 0 612 792;" xml:space="preserve">
<g>
	<g>
		<path style="fill:#FFFFFF;" d="M246,346c40.158,0,80.004,0,120,0c0,33.333,0,66.666,0,100c-39.95,0-79.963,0-120,0
			C246,412.721,246,379.442,246,346z M281.284,403.31c9.677-0.12,17.007-7.638,16.875-17.306c-0.128-9.381-7.59-16.802-16.92-16.83
			c-9.703-0.029-17.349,7.838-17.149,17.644C264.279,396.138,271.878,403.427,281.284,403.31z M323.246,391.691
			c-9.672-0.117-17.255,7.289-17.295,16.89c-0.04,9.645,7.477,17.267,17.008,17.246c9.314-0.021,16.925-7.481,17.066-16.728
			C340.172,399.392,332.862,391.807,323.246,391.691z M316.067,358.088c-7.084,0.029-12.768,5.664-12.774,12.661
			c-0.006,6.905,5.876,12.69,12.851,12.641c7.055-0.05,12.802-5.775,12.769-12.72C328.881,363.68,323.142,358.059,316.067,358.088z
			 M287.745,436.912c7.118,0.103,12.865-5.33,13.073-12.361c0.203-6.858-5.575-12.818-12.548-12.942
			c-7.037-0.126-12.91,5.457-13.066,12.42C275.049,430.995,280.71,436.81,287.745,436.912z"/>
		<path d="M281.284,403.31c-9.406,0.117-17.005-7.172-17.195-16.493c-0.2-9.806,7.446-17.673,17.149-17.644
			c9.331,0.028,16.792,7.45,16.92,16.83C298.291,395.672,290.961,403.189,281.284,403.31z M294.115,386.271
			c-0.007-7.366-6.055-13.439-13.265-13.32c-7.041,0.117-13.023,6.234-12.893,13.184c0.136,7.216,5.875,12.907,13.052,12.941
			C288.229,399.111,294.121,393.354,294.115,386.271z"/>
		<path d="M323.246,391.691c9.616,0.117,16.926,7.701,16.779,17.409c-0.14,9.246-7.752,16.707-17.066,16.728
			c-9.531,0.021-17.048-7.601-17.008-17.246C305.991,398.979,313.574,391.573,323.246,391.691z M309.998,408.586
			c-0.078,7.372,5.887,13.491,13.123,13.463c7.031-0.027,13.08-6.077,13.037-13.041c-0.044-7.204-5.751-12.987-12.91-13.084
			C316.016,395.826,310.073,401.506,309.998,408.586z"/>
		<path d="M316.067,358.088c7.075-0.029,12.814,5.591,12.846,12.582c0.032,6.945-5.714,12.669-12.769,12.72
			c-6.975,0.05-12.857-5.736-12.851-12.641C303.299,363.752,308.983,358.118,316.067,358.088z M324.227,370.384
			c0.045-4.312-3.414-7.637-8.01-7.699c-4.754-0.064-8.217,3.56-8.26,8.646c-0.036,4.229,3.557,7.689,8.04,7.741
			C320.748,379.127,324.173,375.51,324.227,370.384z"/>
		<path d="M287.745,436.912c-7.036-0.102-12.696-5.917-12.54-12.883c0.156-6.963,6.028-12.546,13.066-12.42
			c6.973,0.125,12.751,6.084,12.548,12.942C300.61,431.582,294.864,437.015,287.745,436.912z M296.153,423.843
			c0.129-4.233-3.394-7.779-7.863-7.914c-4.781-0.145-8.246,3.366-8.403,8.515c-0.132,4.321,3.27,7.738,7.837,7.872
			C292.544,432.457,295.996,428.987,296.153,423.843z"/>
		<path style="fill:#FFFFFF;" d="M294.115,386.271c0.006,7.083-5.886,12.84-13.106,12.805c-7.177-0.035-12.917-5.726-13.052-12.941
			c-0.131-6.95,5.851-13.067,12.893-13.184C288.06,372.832,294.108,378.905,294.115,386.271z"/>
		<path style="fill:#FFFFFF;" d="M309.998,408.586c0.075-7.081,6.018-12.76,13.25-12.662c7.16,0.097,12.866,5.881,12.91,13.084
			c0.043,6.964-6.006,13.014-13.037,13.041C315.885,422.077,309.92,415.958,309.998,408.586z"/>
		<path style="fill:#FFFFFF;" d="M324.227,370.384c-0.053,5.127-3.479,8.743-8.229,8.688c-4.483-0.052-8.076-3.512-8.04-7.741
			c0.043-5.086,3.506-8.711,8.26-8.646C320.812,362.746,324.271,366.071,324.227,370.384z"/>
		<path style="fill:#FFFFFF;" d="M296.153,423.843c-0.157,5.145-3.609,8.614-8.429,8.473c-4.567-0.134-7.969-3.551-7.837-7.872
			c0.157-5.149,3.622-8.66,8.403-8.515C292.759,416.064,296.282,419.61,296.153,423.843z"/>
	</g>
</g>
</svg>
