<?xml version="1.0" encoding="iso-8859-1"?>
<!-- Generator: Adobe Illustrator 25.0.0, SVG Export Plug-In . SVG Version: 6.00 Build 0)  -->
<svg version="1.1" id="Calque_1" xmlns="http://www.w3.org/2000/svg" xmlns:xlink="http://www.w3.org/1999/xlink" x="0px" y="0px"
	 viewBox="0 0 612 792" style="enable-background:new 0 0 612 792;" xml:space="preserve">
<g>
	<g>
		<path style="fill:#FFFFFF;" d="M246,446c0.001-33.332,0.001-66.666,0.002-100c39.978,0,79.955,0,119.998,0
			c0,33.292,0,66.584,0,99.998C326.044,445.998,286.021,445.998,246,446z M306.028,430.018c6.828,0,13.656,0.04,20.483-0.011
			c6.491-0.049,9.378-2.931,9.438-9.48c0.068-7.331-0.426-14.698,0.133-21.987c0.646-8.424-1.497-15.534-6.563-22.29
			c-2.44-3.254-4.065-7.552-4.709-11.593c-0.59-3.705-1.765-4.713-5.285-4.621c-7.988,0.208-15.985,0.065-23.979,0.065
			c-6.794,0-6.732,0.009-7.595,6.972c-0.175,1.415-0.838,2.851-1.575,4.099c-2.369,4.012-5.21,7.781-7.226,11.955
			c-1.527,3.162-2.755,6.767-2.919,10.231c-0.408,8.646-0.152,17.324-0.129,25.989c0.02,7.708,2.882,10.632,10.44,10.666
			C293.038,430.041,299.533,430.018,306.028,430.018z"/>
		<path d="M306.028,430.018c-6.495,0-12.99,0.023-19.484-0.006c-7.558-0.034-10.42-2.958-10.44-10.666
			c-0.023-8.665-0.279-17.343,0.129-25.989c0.164-3.464,1.392-7.069,2.919-10.231c2.016-4.174,4.857-7.943,7.226-11.955
			c0.737-1.249,1.4-2.685,1.575-4.099c0.863-6.964,0.801-6.972,7.595-6.972c7.993,0,15.991,0.143,23.979-0.065
			c3.519-0.092,4.694,0.917,5.285,4.621c0.644,4.041,2.269,8.339,4.709,11.593c5.065,6.756,7.209,13.866,6.563,22.29
			c-0.559,7.289-0.066,14.656-0.133,21.987c-0.06,6.55-2.947,9.432-9.438,9.48C319.684,430.057,312.856,430.018,306.028,430.018z
			 M280.592,389.158c0,11.167-0.114,21.936,0.155,32.695c0.031,1.241,2.156,3.434,3.372,3.479
			c8.386,0.308,16.789,0.162,25.139,0.162c0-12.513,0-24.354,0-36.336C299.677,389.158,290.564,389.158,280.592,389.158z
			 M314.237,389.233c0,12.321,0,24.065,0,36.338c4.676,0,9.142,0.258,13.545-0.158c1.31-0.124,3.467-2.111,3.497-3.287
			c0.27-10.912,0.16-21.833,0.16-32.894C325.5,389.233,320.074,389.233,314.237,389.233z M283.316,384.7
			c9.103,0,17.046,0.041,24.986-0.06c0.842-0.011,1.989-0.635,2.456-1.335c2.348-3.518,4.517-7.155,7.319-11.67
			c-9.213,0-17.164-0.06-25.111,0.08c-0.932,0.016-2.15,0.926-2.714,1.77C288.045,376.789,286.048,380.233,283.316,384.7z
			 M306.095,367.118c3.822,0,7.648,0.09,11.464-0.066c0.906-0.037,1.779-0.897,2.667-1.379c-0.792-0.573-1.575-1.632-2.376-1.645
			c-7.809-0.126-15.621-0.126-23.43-0.004c-0.808,0.013-1.599,1.046-2.398,1.605c0.869,0.496,1.721,1.384,2.609,1.421
			C298.447,367.21,302.273,367.119,306.095,367.118z M315.453,384.295c4.822,0,8.902,0,13.735,0
			c-2.438-3.759-4.51-6.954-6.998-10.789C319.884,377.199,317.993,380.227,315.453,384.295z"/>
		<path style="fill:#FFFFFF;" d="M280.592,389.158c9.972,0,19.084,0,28.667,0c0,11.981,0,23.823,0,36.336
			c-8.35,0-16.753,0.146-25.139-0.162c-1.217-0.045-3.341-2.238-3.372-3.479C280.478,411.094,280.592,400.325,280.592,389.158z"/>
		<path style="fill:#FFFFFF;" d="M314.237,389.233c5.837,0,11.263,0,17.202,0c0,11.06,0.111,21.982-0.16,32.894
			c-0.029,1.176-2.186,3.163-3.497,3.287c-4.403,0.415-8.869,0.158-13.545,0.158C314.237,413.297,314.237,401.554,314.237,389.233z"
			/>
		<path style="fill:#FFFFFF;" d="M283.316,384.7c2.732-4.466,4.73-7.911,6.936-11.215c0.564-0.844,1.781-1.753,2.714-1.77
			c7.947-0.14,15.898-0.08,25.111-0.08c-2.802,4.515-4.971,8.152-7.319,11.67c-0.467,0.7-1.614,1.324-2.456,1.335
			C300.361,384.74,292.419,384.7,283.316,384.7z"/>
		<path style="fill:#FFFFFF;" d="M306.095,367.119c-3.822,0.001-7.648,0.092-11.464-0.067c-0.888-0.037-1.74-0.925-2.609-1.421
			c0.799-0.56,1.591-1.593,2.398-1.605c7.809-0.122,15.621-0.122,23.43,0.004c0.801,0.013,1.584,1.071,2.376,1.645
			c-0.888,0.482-1.761,1.342-2.667,1.379C313.744,367.208,309.918,367.118,306.095,367.119z"/>
		<path style="fill:#FFFFFF;" d="M315.453,384.295c2.54-4.068,4.43-7.096,6.736-10.789c2.488,3.836,4.56,7.03,6.998,10.789
			C324.356,384.295,320.275,384.295,315.453,384.295z"/>
	</g>
</g>
</svg>
