<?xml version="1.0" encoding="iso-8859-1"?>
<!-- Generator: Adobe Illustrator 25.0.0, SVG Export Plug-In . SVG Version: 6.00 Build 0)  -->
<svg version="1.1" id="Calque_1" xmlns="http://www.w3.org/2000/svg" xmlns:xlink="http://www.w3.org/1999/xlink" x="0px" y="0px"
	 viewBox="0 0 612 792" style="enable-background:new 0 0 612 792;" xml:space="preserve">
<g>
	<g>
		<path style="fill:#FFFFFF;" d="M366,446c-40.031,0-80.031,0-120,0c0-33.365,0-66.698,0-100c40.031,0,80.031,0,120,0
			C366,379.365,366,412.698,366,446z M283.318,418.981c-0.08,0.828-0.308,2.626-0.42,4.431c-0.284,4.563,0.863,8.646,4.544,11.596
			c0.646,0.518,1.998,0.155,3.025,0.198c-0.108-0.893-0.011-1.885-0.38-2.654c-0.416-0.868-1.352-1.47-1.887-2.3
			c-4.246-6.596-0.973-13.73,6.599-14.507c2.153-0.221,4.294-0.566,6.436-0.884c22.356-3.311,40.666-21.289,44.386-43.572
			c1.251-7.495,0.674-8.613-5.622-10.497c0.722-4.221-1.668-4.929-5.304-4.775c-9.846,0.416-18.405,4.135-26.363,9.641
			c-14.98,10.365-21.759,25.084-23.035,42.84c-0.113,1.571-0.919,3.929-2.064,4.44c-4.389,1.957-8.933,2.383-13.307-0.6
			c-1.24-0.846-2.963-0.981-4.465-1.443c0.877,1.593,1.432,4.199,2.689,4.6C272.882,417.003,277.844,417.793,283.318,418.981z"/>
		<path d="M283.318,418.981c-5.474-1.189-10.436-1.979-15.169-3.487c-1.257-0.401-1.812-3.007-2.689-4.6
			c1.502,0.461,3.225,0.597,4.465,1.443c4.374,2.984,8.918,2.558,13.307,0.6c1.145-0.511,1.951-2.869,2.064-4.44
			c1.276-17.756,8.055-32.476,23.035-42.84c7.958-5.506,16.517-9.226,26.363-9.641c3.636-0.153,6.026,0.554,5.304,4.775
			c6.296,1.885,6.873,3.002,5.622,10.497c-3.72,22.284-22.03,40.261-44.386,43.572c-2.142,0.317-4.283,0.663-6.436,0.884
			c-7.571,0.777-10.845,7.911-6.599,14.507c0.535,0.83,1.471,1.432,1.887,2.3c0.368,0.769,0.271,1.761,0.38,2.654
			c-1.026-0.044-2.378,0.32-3.025-0.198c-3.681-2.95-4.828-7.033-4.544-11.596C283.011,421.607,283.238,419.81,283.318,418.981z
			 M300.226,378.117c6.879,0,12.466,0.184,18.033-0.065c3.7-0.166,5.062,1.107,4.907,4.842c-0.238,5.715-0.063,11.447-0.063,18.629
			c11.283-10.452,18.272-21.271,19.114-35.273c-0.514,0.159-1.027,0.318-1.541,0.477c-2.059-1.982-4.118-3.964-7.15-6.883
			C321.235,360.63,310.468,367.28,300.226,378.117z M288.872,411.747c3.783-0.254,6.58-0.344,9.353-0.659
			c2.475-0.281,4.915-0.856,7.383-1.219c2.629-0.386,3.391-1.837,3.466-4.456c0.327-11.392,0.414-11.389-10.976-11.753
			c-0.998-0.032-2.187-0.429-2.954-0.024c-1.491,0.786-3.634,1.812-3.938,3.108C290.113,401.393,289.674,406.196,288.872,411.747z
			 M318.936,382.352c-6.078,0-11.387,0.328-16.636-0.094c-5.061-0.407-7.234,1.931-8.271,7.209c3.754,0,7.214-0.189,10.647,0.036
			c9.283,0.611,8.548-0.811,8.593,8.863c0.013,2.723,0.002,5.447,0.002,8.171c0.597,0.229,1.195,0.458,1.792,0.687
			c1.291-1.755,3.559-3.436,3.696-5.277C319.224,395.697,318.936,389.391,318.936,382.352z"/>
		<path style="fill:#FFFFFF;" d="M300.226,378.117c10.242-10.837,21.009-17.487,33.299-18.273c3.032,2.919,5.091,4.901,7.15,6.883
			c0.514-0.159,1.027-0.318,1.541-0.477c-0.841,14.002-7.831,24.822-19.114,35.273c0-7.182-0.176-12.914,0.063-18.629
			c0.156-3.736-1.207-5.008-4.907-4.842C312.692,378.301,307.106,378.117,300.226,378.117z M331.685,367.068
			c-1.49,1.768-3.042,2.803-3.039,3.836c0.003,1.008,1.506,2.69,2.51,2.816c0.883,0.111,2.641-1.411,2.807-2.411
			C334.13,370.295,332.819,369.037,331.685,367.068z"/>
		<path style="fill:#FFFFFF;" d="M288.872,411.747c0.802-5.551,1.241-10.354,2.334-15.003c0.305-1.295,2.447-2.322,3.938-3.108
			c0.767-0.404,1.956-0.008,2.954,0.024c11.39,0.363,11.303,0.361,10.976,11.753c-0.075,2.619-0.837,4.07-3.466,4.456
			c-2.468,0.362-4.908,0.938-7.383,1.219C295.452,411.403,292.654,411.493,288.872,411.747z"/>
		<path style="fill:#FFFFFF;" d="M318.936,382.352c0,7.039,0.288,13.346-0.178,19.596c-0.137,1.84-2.405,3.522-3.696,5.277
			c-0.597-0.229-1.195-0.458-1.792-0.687c0-2.724,0.011-5.447-0.002-8.171c-0.044-9.675,0.691-8.252-8.593-8.863
			c-3.433-0.226-6.893-0.036-10.647-0.036c1.038-5.278,3.21-7.616,8.271-7.209C307.549,382.68,312.859,382.352,318.936,382.352z"/>
		<path d="M331.685,367.068c1.134,1.968,2.445,3.227,2.277,4.24c-0.166,1-1.924,2.522-2.807,2.411
			c-1.003-0.126-2.507-1.807-2.51-2.816C328.644,369.872,330.196,368.836,331.685,367.068z"/>
	</g>
</g>
</svg>
