<?xml version="1.0" encoding="iso-8859-1"?>
<!-- Generator: Adobe Illustrator 25.0.0, SVG Export Plug-In . SVG Version: 6.00 Build 0)  -->
<svg version="1.1" id="Calque_1" xmlns="http://www.w3.org/2000/svg" xmlns:xlink="http://www.w3.org/1999/xlink" x="0px" y="0px"
	 viewBox="0 0 612 792" style="enable-background:new 0 0 612 792;" xml:space="preserve">
<g>
	<g>
		<path style="fill:#FFFFFF;" d="M366,446c-40,0-80,0-120,0c0-33.333,0-66.667,0-100c40,0,80,0,120,0
			C366,379.333,366,412.667,366,446z M341.527,363.497c3.376-0.635,5.975-1.044,8.532-1.637c1.283-0.297,2.488-0.927,3.728-1.407
			c-1.048-1.063-2.198-3.108-3.125-3.011c-3.332,0.348-6.61,1.344-9.863,2.258c-1.171,0.329-2.532,1.884-3.266,1.579
			c-9.878-4.104-16.388,1.576-22.285,7.895c-14.996,16.067-29.642,32.46-44.588,48.574c-2.639,2.845-2.847,4.945,0.09,7.396
			c1.531,1.278,2.927,2.732,4.527,3.913c8.298,6.121,16.52,6.717,22.694,0.369c11.952-12.288,23.34-25.128,34.836-37.853
			c0.717-0.794,0.344-2.573,0.478-3.894c-1.28,0.339-2.904,0.299-3.774,1.089c-2.455,2.231-4.601,4.802-7.109,7.498
			c-0.23-3.852-0.41-6.88-0.601-10.089c5.022,1.462,9.094-0.097,11.722-5.054c3.554,5.956,5.112,5.927,8.93,0.21
			C346.194,375.735,346.131,370.137,341.527,363.497z M262.015,423.286c2.762-3.057,4.848-5.39,6.961-7.699
			c9.889-10.803,19.833-21.557,29.605-32.465c0.947-1.057,0.849-3.049,1.236-4.606c-1.524,0.557-3.516,0.679-4.502,1.738
			c-12.254,13.149-24.412,26.389-36.409,39.773c-0.948,1.058-1.329,4.197-0.574,4.935c3.171,3.099,6.783,5.789,10.463,8.291
			c0.736,0.501,2.476-0.473,3.753-0.768c-0.566-1.054-0.882-2.426-1.744-3.101C268.221,427.363,265.424,425.615,262.015,423.286z"/>
		<path d="M341.527,363.497c4.604,6.64,4.667,12.238,0.926,17.838c-3.818,5.717-5.376,5.746-8.93-0.21
			c-2.628,4.958-6.7,6.517-11.722,5.054c0.191,3.208,0.372,6.236,0.601,10.089c2.508-2.696,4.654-5.268,7.109-7.498
			c0.87-0.79,2.494-0.75,3.774-1.089c-0.134,1.321,0.239,3.1-0.478,3.894c-11.496,12.725-22.883,25.565-34.836,37.853
			c-6.174,6.347-14.396,5.752-22.694-0.369c-1.6-1.18-2.996-2.634-4.527-3.913c-2.937-2.452-2.729-4.551-0.09-7.396
			c14.946-16.114,29.592-32.507,44.588-48.574c5.898-6.319,12.408-11.999,22.285-7.895c0.734,0.305,2.095-1.25,3.266-1.579
			c3.253-0.914,6.531-1.909,9.863-2.258c0.927-0.097,2.077,1.949,3.125,3.011c-1.24,0.479-2.446,1.109-3.728,1.407
			C347.503,362.452,344.904,362.862,341.527,363.497z M298.051,422.049c-7.049,5.266-14.286,3.959-15.69-2.991
			c-0.431-2.134,0.165-4.475,0.327-7.379c-1.801,1.884-3.29,3.397-4.727,4.958c-1.426,1.549-2.8,3.146-4.161,4.682
			c9.418,10.224,18.884,10.338,24.152,0.631c3.444-3.263,6.888-6.527,10.759-10.195c-4.161,0.397-7.284,0.696-9.966,0.952
			C298.522,415.709,298.287,418.879,298.051,422.049z M338.35,378.593c3.501-5.224,2.999-9.043-1.602-12.197
			c-4.836-3.314-10.388-2.079-13.921,2.938c2.668,1.176,5.524,2.122,8.041,3.632C333.53,374.562,335.869,376.696,338.35,378.593z
			 M308.922,383.584c3.157-0.3,6.005-0.571,8.113-0.772c0.497-2.166,0.895-3.906,1.294-5.647c0.973,0.347,2.283,0.406,2.865,1.087
			c4.406,5.154,4.528,5.194,9.279,0.049C321.02,371.503,317.111,372.402,308.922,383.584z M296.588,396.45
			c3.882-0.257,6.893-0.456,9.646-0.639c-0.171-2.905-0.335-5.706-0.546-9.296C302.377,390.13,299.635,393.123,296.588,396.45z
			 M319.67,391.579c-2.485-1.898-3.92-3.849-5.284-3.801c-1.433,0.051-2.799,2.016-4.194,3.145c1.271,1.407,2.345,3.575,3.879,3.975
			C315.24,395.203,316.993,393.265,319.67,391.579z M285.117,408.916c4.093,0,6.925,0,9.305,0c0-3.286,0-6.43,0-10.134
			C291.354,402.124,288.517,405.214,285.117,408.916z M307.803,404.123c-2.569-1.801-4.11-3.719-5.419-3.572
			c-1.405,0.157-2.593,2.255-3.876,3.507c1.323,1.345,2.483,3.45,4.024,3.781C303.661,408.081,305.291,405.995,307.803,404.123z
			 M290.534,411.448c-1.777,2.591-3.616,4.093-3.526,5.469c0.093,1.421,2.061,2.72,3.209,4.073c1.333-1.329,3.434-2.499,3.755-4.039
			C294.223,415.741,292.275,414.074,290.534,411.448z M310.3,409.55c3.367-3.689,6.185-6.776,9.225-10.107c-3.612,0-6.584,0-9.225,0
			C310.3,402.553,310.3,405.557,310.3,409.55z"/>
		<path d="M262.015,423.286c3.408,2.329,6.205,4.077,8.789,6.098c0.862,0.674,1.178,2.047,1.744,3.101
			c-1.277,0.294-3.016,1.268-3.753,0.768c-3.68-2.502-7.292-5.192-10.463-8.291c-0.756-0.738-0.374-3.877,0.574-4.935
			c11.997-13.384,24.155-26.624,36.409-39.773c0.986-1.059,2.978-1.18,4.502-1.738c-0.387,1.558-0.289,3.55-1.236,4.606
			c-9.772,10.908-19.716,21.662-29.605,32.465C266.863,417.896,264.777,420.23,262.015,423.286z"/>
		<path style="fill:#FFFFFF;" d="M338.35,378.594c-2.481-1.898-4.82-4.032-7.481-5.628c-2.518-1.51-5.374-2.456-8.041-3.632
			c3.534-5.016,9.086-6.252,13.921-2.938C341.349,369.55,341.851,373.369,338.35,378.594z"/>
		<path style="fill:#FFFFFF;" d="M297.953,421.95c-5.268,9.707-14.734,9.593-24.153-0.631c1.361-1.536,2.735-3.133,4.161-4.682
			c1.437-1.561,2.926-3.074,4.727-4.958c-0.162,2.903-0.758,5.245-0.327,7.379c1.404,6.95,8.641,8.258,15.69,2.991L297.953,421.95z"
			/>
		<path style="fill:#FFFFFF;" d="M308.922,383.584c8.189-11.182,12.098-12.081,21.552-5.283c-4.751,5.144-4.873,5.104-9.279-0.049
			c-0.582-0.681-1.892-0.74-2.865-1.087c-0.399,1.74-0.798,3.481-1.294,5.647C314.927,383.012,312.079,383.283,308.922,383.584z"/>
		<path style="fill:#FFFFFF;" d="M296.588,396.45c3.048-3.327,5.789-6.32,9.1-9.935c0.211,3.59,0.375,6.392,0.546,9.296
			C303.481,395.994,300.47,396.193,296.588,396.45z"/>
		<path style="fill:#FFFFFF;" d="M319.67,391.579c-2.677,1.686-4.431,3.624-5.599,3.319c-1.534-0.4-2.607-2.568-3.879-3.975
			c1.395-1.129,2.761-3.094,4.194-3.145C315.751,387.73,317.186,389.682,319.67,391.579z"/>
		<path style="fill:#FFFFFF;" d="M285.117,408.916c3.399-3.702,6.237-6.792,9.305-10.134c0,3.704,0,6.847,0,10.134
			C292.042,408.916,289.21,408.916,285.117,408.916z"/>
		<path style="fill:#FFFFFF;" d="M307.803,404.123c-2.512,1.872-4.142,3.958-5.271,3.715c-1.541-0.331-2.701-2.436-4.024-3.781
			c1.283-1.251,2.471-3.349,3.876-3.507C303.693,400.404,305.234,402.322,307.803,404.123z"/>
		<path style="fill:#FFFFFF;" d="M290.534,411.448c1.741,2.625,3.689,4.293,3.437,5.502c-0.32,1.54-2.421,2.71-3.755,4.039
			c-1.148-1.353-3.116-2.651-3.209-4.073C286.918,415.542,288.757,414.039,290.534,411.448z"/>
		<path style="fill:#FFFFFF;" d="M310.3,409.55c0-3.992,0-6.997,0-10.107c2.64,0,5.612,0,9.225,0
			C316.484,402.773,313.667,405.86,310.3,409.55z"/>
		<path style="fill:#FFFFFF;" d="M298.051,422.049c0.236-3.17,0.471-6.34,0.694-9.343c2.683-0.256,5.806-0.554,9.966-0.952
			c-3.871,3.668-7.315,6.932-10.759,10.195C297.953,421.95,298.051,422.049,298.051,422.049z"/>
	</g>
</g>
</svg>
