<?xml version="1.0" encoding="iso-8859-1"?>
<!-- Generator: Adobe Illustrator 25.0.0, SVG Export Plug-In . SVG Version: 6.00 Build 0)  -->
<svg version="1.1" id="Calque_1" xmlns="http://www.w3.org/2000/svg" xmlns:xlink="http://www.w3.org/1999/xlink" x="0px" y="0px"
	 viewBox="0 0 612 792" style="enable-background:new 0 0 612 792;" xml:space="preserve">
<g>
	<g>
		<path style="fill:#FFFFFF;" d="M246,346c39.984,0,79.987,0,119.995,0C366,379.311,366,412.622,366,446c-39.948,0-79.907,0-120,0
			C246,412.712,246,379.356,246,346z M302.656,366.202c-1.351,0.233-3.513,0.482-5.611,0.99
			c-9.266,2.243-16.673,7.058-19.975,16.329c-0.948,2.661-0.134,6.037,0.226,9.043c0.263,2.197,1.576,4.316,1.615,6.484
			c0.314,17.408,5.758,23.613,21.723,30.547c5.177,2.248,6.501,1.531,11.162-0.484c13.8-5.966,19.765-15.468,19.217-29.982
			c-0.058-1.523,0.671-3.602,1.782-4.543c3.333-2.826,3.748-6.217,2.574-9.942c-3.186-10.108-10.685-15.284-20.622-17.507
			c-2.043-0.457-4.116-0.781-6.175-1.167c0.333-0.361,0.667-0.723,1-1.084c-1.176-2.231-2.352-4.463-3.528-6.694
			C305.047,360.553,304.048,362.913,302.656,366.202z"/>
		<path d="M302.656,366.202c1.392-3.289,2.39-5.649,3.389-8.01c1.176,2.231,2.352,4.463,3.528,6.694
			c-0.333,0.361-0.667,0.723-1,1.084c2.059,0.386,4.132,0.71,6.175,1.167c9.936,2.222,17.436,7.399,20.622,17.507
			c1.174,3.725,0.76,7.116-2.574,9.942c-1.111,0.941-1.839,3.021-1.782,4.543c0.548,14.514-5.417,24.016-19.217,29.982
			c-4.66,2.015-5.985,2.732-11.162,0.484c-15.965-6.933-21.41-13.139-21.723-30.547c-0.039-2.168-1.352-4.287-1.615-6.484
			c-0.36-3.006-1.174-6.383-0.226-9.043c3.302-9.271,10.709-14.086,19.975-16.329C299.144,366.684,301.305,366.435,302.656,366.202z
			 M328.04,381.076l0.175,0.172c-1.514-1.862-2.7-4.202-4.599-5.504c-8.243-5.649-17.472-6.047-26.801-3.722
			c-5.119,1.276-10.191,3.239-12.365,8.896l0.058-0.104c-3.46,2.252-4.419,5.335-3.116,10.061c4.888-3.638,9.456-2.716,14.209-0.368
			c1.285,0.635,3.398-0.59,5.142-0.654c3.462-0.128,6.934-0.134,10.396-0.006c1.743,0.065,3.845,1.306,5.14,0.681
			c4.754-2.295,9.322-3.302,13.96,0.211C331.596,385.764,331.296,384.641,328.04,381.076z M326.406,400.587
			c0.047-8.458,0.126-8.164-8.054-5.967c-2.778,0.746-6.064-0.413-9.12-0.682c-1.894-0.167-4.136-1.016-5.623-0.306
			c-4.435,2.116-8.426,2.055-12.854-0.078c-4.056-1.954-7.153,0.355-7.186,4.877c-0.018,2.49,0.035,4.99,0.228,7.471
			c0.783,10.054,11.85,21.97,26.275,18.307C320.925,421.452,326.334,413.488,326.406,400.587z"/>
		<path style="fill:#FFFFFF;" d="M326.406,400.587c-0.071,12.9-5.481,20.864-16.334,23.621
			c-14.425,3.664-25.492-8.253-26.275-18.307c-0.193-2.482-0.246-4.981-0.228-7.471c0.032-4.521,3.13-6.83,7.186-4.877
			c4.427,2.133,8.419,2.194,12.854,0.078c1.487-0.71,3.729,0.14,5.623,0.306c3.056,0.269,6.342,1.428,9.12,0.682
			C326.531,392.424,326.452,392.13,326.406,400.587z"/>
		<path style="fill:#FFFFFF;" d="M284.45,380.919c2.173-5.658,7.245-7.621,12.365-8.896c9.329-2.325,18.559-1.927,26.801,3.722
			c1.899,1.301,3.085,3.642,4.595,5.501c-3.419-1.044-7.705,2.18-10.512-2.122c-0.086-0.132-1.522,0.23-1.623,0.57
			c-0.248,0.837-0.433,2.359-0.027,2.611c2.229,1.383,4.551,3.126,7.021,3.478c2.798,0.399,5.034-1.311,4.968-4.706
			c3.257,3.565,3.556,4.687,2.198,9.663c-4.639-3.513-9.206-2.506-13.96-0.211c-1.295,0.625-3.396-0.617-5.14-0.681
			c-3.461-0.128-6.934-0.122-10.396,0.006c-1.744,0.064-3.856,1.289-5.142,0.654c-4.753-2.348-9.321-3.27-14.209,0.368
			c-1.303-4.726-0.344-7.809,3.114-10.059c-1.505,4.686,2.063,4.874,4.895,5.092c3.476,0.267,6.051-1.441,6.742-5.048
			c0.068-0.354-1.739-1.067-2.676-1.613C291.183,383.694,287.518,380.695,284.45,380.919z M306.539,382.019
			c1.804-0.863,3.628-1.39,4.955-2.507c0.734-0.618,0.634-2.225,0.91-3.386c-1.027,0.014-2.055,0.052-3.081,0.038
			c-1.779-0.024-3.558-0.086-5.337-0.122c-1.141-0.023-2.281-0.026-3.422-0.038c0.35,1.155,0.355,2.705,1.126,3.378
			C302.998,380.525,304.79,381.115,306.539,382.019z"/>
		<path d="M284.45,380.919c3.067-0.224,6.733,2.775,9.016-1.672c0.937,0.546,2.744,1.259,2.676,1.613
			c-0.691,3.607-3.266,5.315-6.742,5.048c-2.832-0.218-6.4-0.406-4.895-5.092C284.508,380.815,284.45,380.919,284.45,380.919z"/>
		<path d="M306.539,382.019c-1.749-0.905-3.541-1.494-4.849-2.636c-0.771-0.673-0.776-2.222-1.126-3.378
			c1.141,0.012,2.282,0.015,3.422,0.038c1.779,0.035,3.558,0.097,5.337,0.122c1.027,0.014,2.054-0.024,3.081-0.038
			c-0.276,1.161-0.176,2.768-0.91,3.386C310.167,380.63,308.343,381.156,306.539,382.019z"/>
		<path d="M328.04,381.076c0.065,3.395-2.171,5.105-4.968,4.706c-2.471-0.352-4.792-2.095-7.021-3.478
			c-0.407-0.252-0.221-1.774,0.027-2.611c0.101-0.34,1.537-0.702,1.623-0.57c2.807,4.302,7.093,1.078,10.512,2.122
			C328.215,381.248,328.04,381.076,328.04,381.076z"/>
	</g>
</g>
</svg>
