<?xml version="1.0" encoding="iso-8859-1"?>
<!-- Generator: Adobe Illustrator 25.0.0, SVG Export Plug-In . SVG Version: 6.00 Build 0)  -->
<svg version="1.1" id="Calque_1" xmlns="http://www.w3.org/2000/svg" xmlns:xlink="http://www.w3.org/1999/xlink" x="0px" y="0px"
	 viewBox="0 0 612 792" style="enable-background:new 0 0 612 792;" xml:space="preserve">
<g>
	<g>
		<path style="fill:#FFFFFF;" d="M303.966,446c-19.3,0-38.599,0-57.966,0c0-33.212,0-66.424,0-100c19.609,0,39.288,0,58.966,0
			c-0.403,2.906-0.758,5.819-1.227,8.715c-0.282,1.743-0.397,3.636-1.183,5.153c-2.435,4.699-5.155,9.25-7.952,14.191
			c-2.5-1.116-7.549-1.085-7.151-7.336c0.051-0.801-1.568-1.708-2.413-2.566c-0.642,1.139-1.967,2.378-1.816,3.399
			c1.039,7.038,2.386,14.03,3.648,21.119c-0.525,0.452-2.555,1.472-2.462,2.237c0.602,4.993,1.665,9.93,2.426,14.068
			c-0.914,2.123-2.353,3.882-2.288,5.583c0.301,7.816,2.67,15.761,9.51,19.377C301.244,433.739,304.318,438.378,303.966,446z"/>
		<path style="fill:#FFFFFF;" d="M307.968,346c19.344,0,38.688,0,58.032,0c0,33.333,0,66.667,0,100c-19.678,0-39.355,0-59.033,0
			c0.567-3.88,1.134-7.759,1.718-11.757c15.355-6.295,23.866-21.386,16.247-29.103c4.478-10.592,5.624-15.695,0.103-16.435
			c1.245-6.943,2.573-13.897,3.649-20.888c0.142-0.922-1.002-2.041-1.55-3.069c-0.938,0.755-2.628,1.453-2.692,2.276
			c-0.399,5.15-4.105,6.238-8.088,7.179c-1.256-9.723-10.05-17.132-8.356-27.704C308.024,346.337,307.979,346.166,307.968,346z"/>
		<path d="M307.968,346c0.012,0.166,0.056,0.337,0.03,0.497c-1.694,10.572,7.099,17.981,8.356,27.704
			c3.983-0.94,7.69-2.029,8.088-7.179c0.064-0.823,1.754-1.52,2.692-2.276c0.548,1.028,1.692,2.147,1.55,3.069
			c-1.076,6.992-2.404,13.945-3.649,20.888c5.521,0.74,4.375,5.843-0.103,16.435c7.62,7.718-0.891,22.809-16.247,29.103
			c-0.584,3.997-1.151,7.877-1.718,11.757c-1.001,0-2.001,0-3.002,0c0.352-7.622-2.722-12.261-9.909-16.06
			c-6.84-3.616-9.209-11.561-9.51-19.377c-0.066-1.701,1.373-3.46,2.288-5.583c-0.762-4.138-1.824-9.075-2.426-14.068
			c-0.092-0.765,1.937-1.785,2.462-2.237c-1.262-7.089-2.609-14.081-3.648-21.119c-0.151-1.022,1.174-2.261,1.816-3.399
			c0.845,0.858,2.464,1.765,2.413,2.566c-0.397,6.251,4.652,6.219,7.151,7.336c2.798-4.941,5.518-9.492,7.952-14.191
			c0.786-1.517,0.901-3.41,1.183-5.153c0.469-2.895,0.824-5.809,1.227-8.715C305.967,346,306.967,346,307.968,346z M306.234,363.262
			c-7.172,5.762-7.136,12.759,0.094,18.287C312.911,375.83,312.875,369.04,306.234,363.262z M289.239,411.602
			c1.084,9.924,6.716,17.069,13.258,17.211C301.691,419.374,297.669,414.038,289.239,411.602z M289.171,377.086
			c1.243,9.826,5.987,16.111,13.055,17.712C302.558,386.144,298.012,379.85,289.171,377.086z M322.818,377.048
			c-8.939,2.947-13.452,9.265-12.922,17.737C316.954,393.118,321.826,386.591,322.818,377.048z M309.878,428.955
			c6.973-0.973,13.178-9.564,12.472-17.266C314.023,414.254,309.575,420.413,309.878,428.955z M302.995,411.577
			c0.012-8.404-6.289-15.893-13.902-16.522C290.67,403.977,295.772,410.04,302.995,411.577z M309.194,411.754
			c8.123-2.482,13.291-8.716,14.115-16.708C315.412,396.377,309.507,403.21,309.194,411.754z"/>
		<path style="fill:#FFFFFF;" d="M306.234,363.262c6.642,5.778,6.677,12.568,0.094,18.287
			C299.098,376.022,299.062,369.024,306.234,363.262z"/>
		<path style="fill:#FFFFFF;" d="M289.239,411.602c8.43,2.436,12.452,7.772,13.258,17.211
			C295.955,428.671,290.323,421.526,289.239,411.602z"/>
		<path style="fill:#FFFFFF;" d="M289.171,377.086c8.84,2.764,13.387,9.058,13.055,17.712
			C295.159,393.197,290.414,386.913,289.171,377.086z"/>
		<path style="fill:#FFFFFF;" d="M322.818,377.048c-0.992,9.543-5.864,16.07-12.922,17.737
			C309.366,386.313,313.879,379.996,322.818,377.048z"/>
		<path style="fill:#FFFFFF;" d="M309.878,428.955c-0.303-8.542,4.145-14.701,12.472-17.266
			C323.056,419.391,316.851,427.982,309.878,428.955z"/>
		<path style="fill:#FFFFFF;" d="M302.995,411.577c-7.223-1.536-12.324-7.599-13.902-16.522
			C296.705,395.684,303.006,403.172,302.995,411.577z"/>
		<path style="fill:#FFFFFF;" d="M309.194,411.754c0.313-8.544,6.219-15.377,14.115-16.708
			C322.485,403.038,317.317,409.272,309.194,411.754z"/>
	</g>
</g>
</svg>
