<?xml version="1.0" encoding="iso-8859-1"?>
<!-- Generator: Adobe Illustrator 25.0.0, SVG Export Plug-In . SVG Version: 6.00 Build 0)  -->
<svg version="1.1" id="Calque_1" xmlns="http://www.w3.org/2000/svg" xmlns:xlink="http://www.w3.org/1999/xlink" x="0px" y="0px"
	 viewBox="0 0 612 792" style="enable-background:new 0 0 612 792;" xml:space="preserve">
<g>
	<g>
		<path style="fill:#FFFFFF;" d="M246,346c39.945,0,79.945,0,120,0c0,33.278,0,66.611,0,100c-39.945,0-79.945,0-120,0
			C246,412.722,246,379.389,246,346z M256.906,392.901c-7.18,0.613-8.856,2.42-8.875,9.924c-0.006,2.501-0.011,5.003,0.001,7.504
			c0.035,7.309,2.274,9.617,9.462,9.608c30.511-0.037,61.023-0.103,91.534-0.149c14.255-0.022,14.944-0.699,14.943-14.89
			c-0.001-9.63-0.001-9.63-8.328-12.637c-0.942-3.935-1.498-7.761-2.792-11.318c-1.979-5.44-5.33-9.762-11.827-9.849
			c-6.304-0.084-9.67,4.119-11.776,9.245c-1.616,3.934-2.395,8.212-3.576,12.445c-1.412,0-2.843,0-4.12,0
			c-0.967-4.12-1.512-8.109-2.862-11.804c-1.978-5.413-5.309-9.787-11.815-9.887c-6.296-0.097-9.684,4.063-11.788,9.208
			c-1.61,3.938-2.423,8.203-3.638,12.49c-1.316,0-2.749,0-3.721,0c-1.664-5.043-2.603-10.061-4.889-14.364
			c-4.79-9.019-15.239-9.236-20.35-0.393C259.974,382.388,258.858,387.548,256.906,392.901z"/>
		<path d="M256.906,392.901c1.953-5.352,3.069-10.513,5.583-14.865c5.11-8.843,15.559-8.626,20.35,0.393
			c2.285,4.303,3.225,9.321,4.889,14.364c0.973,0,2.405,0,3.721,0c1.215-4.287,2.028-8.552,3.638-12.49
			c2.104-5.145,5.492-9.305,11.788-9.208c6.506,0.1,9.837,4.474,11.815,9.887c1.35,3.695,1.895,7.684,2.862,11.804
			c1.277,0,2.708,0,4.12,0c1.181-4.233,1.96-8.511,3.576-12.445c2.106-5.126,5.473-9.329,11.776-9.245
			c6.498,0.087,9.848,4.409,11.827,9.849c1.294,3.557,1.85,7.383,2.792,11.318c8.328,3.007,8.328,3.007,8.328,12.637
			c0.001,14.192-0.688,14.869-14.943,14.89c-30.511,0.046-61.023,0.112-91.534,0.149c-7.189,0.009-9.428-2.299-9.462-9.608
			c-0.012-2.501-0.007-5.003-0.001-7.504C248.05,395.321,249.726,393.514,256.906,392.901z M306.105,414.959
			c0-0.022,0-0.045,0-0.067c13.662,0,27.325,0.099,40.986-0.027c14.291-0.132,12.183,2.324,12.21-13.003
			c0.002-1.413-1.469-2.828-2.257-4.242c-1.27,0.986-3,1.709-3.739,3c-6.293,10.985-18.112,11.225-24.591,0.391
			c-2.906-4.86-7.06-4.881-9.845-0.05c-5.914,10.261-17.485,10.731-23.797,0.968c-3.997-6.183-7.033-6.162-10.611,0.074
			c-5.666,9.875-17.338,10.194-23.519,0.629c-0.629-0.974-0.906-2.301-1.738-2.989c-1.107-0.914-2.75-2.057-3.882-1.811
			c-1.089,0.237-2.394,2.028-2.591,3.294c-0.405,2.604,0.096,5.339-0.19,7.975c-0.516,4.756,1.62,5.993,6.081,5.936
			C274.448,414.836,290.277,414.959,306.105,414.959z M282.164,392.815c0.286-0.108,0.572-0.216,0.858-0.325
			c-1.583-4.304-2.602-8.94-4.892-12.827c-2.814-4.777-7.778-4.707-11.094-0.287c-3.658,4.877-4.983,10.556-4.084,16.553
			c0.755,5.04,5.652,9.338,9.831,9.148c4.343-0.198,8.581-4.651,9.258-9.767C282.15,394.488,282.126,393.647,282.164,392.815z
			 M351.541,392.263c-1.729-4.579-2.884-9.499-5.345-13.643c-2.527-4.256-8.019-4.427-10.284-0.129
			c-2.527,4.796-4.345,10.461-4.587,15.832c-0.264,5.859,5.487,10.396,10.361,9.929C346.618,403.78,350.492,398.7,351.541,392.263z
			 M316.259,392.124c0.337-0.127,0.673-0.255,1.01-0.382c-1.703-4.411-2.852-9.158-5.261-13.142c-2.542-4.205-7.447-4.08-10.492-0.2
			c-3.869,4.93-5.39,10.737-4.385,16.901c0.886,5.436,5.841,9.402,10.38,8.951c4.651-0.462,8.434-5.057,8.743-10.63
			C316.283,393.124,316.259,392.623,316.259,392.124z"/>
		<path style="fill:#FFFFFF;" d="M306.105,414.959c-15.828,0-31.657-0.123-47.482,0.078c-4.462,0.057-6.597-1.181-6.081-5.936
			c0.286-2.636-0.215-5.37,0.19-7.975c0.197-1.266,1.502-3.057,2.591-3.294c1.132-0.246,2.775,0.896,3.882,1.811
			c0.833,0.688,1.109,2.015,1.738,2.989c6.18,9.565,17.853,9.246,23.519-0.629c3.578-6.236,6.614-6.257,10.611-0.074
			c6.311,9.764,17.883,9.293,23.797-0.968c2.784-4.831,6.938-4.81,9.845,0.05c6.479,10.835,18.298,10.594,24.591-0.391
			c0.739-1.291,2.469-2.014,3.739-3c0.787,1.414,2.259,2.83,2.257,4.242c-0.027,15.326,2.081,12.871-12.21,13.003
			c-13.661,0.126-27.324,0.027-40.986,0.027C306.105,414.914,306.105,414.936,306.105,414.959z"/>
		<path style="fill:#FFFFFF;" d="M282.164,392.815c-0.038,0.833-0.014,1.673-0.123,2.497c-0.677,5.116-4.915,9.569-9.258,9.767
			c-4.179,0.19-9.076-4.109-9.831-9.148c-0.898-5.997,0.427-11.677,4.084-16.553c3.315-4.421,8.279-4.491,11.094,0.287
			c2.29,3.887,3.309,8.523,4.892,12.827C282.736,392.598,282.45,392.706,282.164,392.815z"/>
		<path style="fill:#FFFFFF;" d="M351.541,392.263c-1.049,6.437-4.923,11.517-9.855,11.989c-4.874,0.467-10.625-4.07-10.361-9.929
			c0.242-5.371,2.059-11.036,4.587-15.832c2.265-4.298,7.757-4.127,10.284,0.129C348.658,382.764,349.813,387.684,351.541,392.263z"
			/>
		<path style="fill:#FFFFFF;" d="M316.259,392.124c0,0.499,0.024,1-0.004,1.498c-0.309,5.573-4.092,10.167-8.743,10.63
			c-4.539,0.451-9.494-3.515-10.38-8.951c-1.005-6.164,0.516-11.971,4.385-16.901c3.045-3.879,7.95-4.005,10.492,0.2
			c2.409,3.985,3.558,8.731,5.261,13.142C316.932,391.869,316.595,391.996,316.259,392.124z"/>
	</g>
</g>
</svg>
