<?xml version="1.0" encoding="iso-8859-1"?>
<!-- Generator: Adobe Illustrator 25.0.0, SVG Export Plug-In . SVG Version: 6.00 Build 0)  -->
<svg version="1.1" id="Calque_1" xmlns="http://www.w3.org/2000/svg" xmlns:xlink="http://www.w3.org/1999/xlink" x="0px" y="0px"
	 viewBox="0 0 612 792" style="enable-background:new 0 0 612 792;" xml:space="preserve">
<g>
	<g>
		<path style="fill:#FFFFFF;" d="M246,446c0-33.333,0-66.667,0-100c40,0,80,0,120,0c0,33.333,0,66.667,0,100
			C326,446,286,446,246,446z M298.585,366.744c-0.805,0.168-1.459,0.483-2.057,0.399c-4.405-0.618-5.989,1.175-5.562,5.603
			c0.173,1.801-0.964,3.722-1.472,5.596c-1.164,4.286-2.788,8.516-3.353,12.882c-0.982,7.577-1.357,15.236-1.878,22.868
			c-0.226,3.314-0.483,6.673-0.197,9.966c0.597,6.867,5.009,10.72,11.844,10.743c6.496,0.022,12.992,0.026,19.488-0.002
			c6.132-0.026,10.434-3.507,11.423-9.54c0.399-2.435,0.347-4.987,0.183-7.464c-0.638-9.627-1.336-19.252-2.17-28.864
			c-0.199-2.287-0.884-4.56-1.569-6.77c-1.437-4.632-3.022-9.218-4.792-14.564c-1.319-0.195-3.698-0.547-6.063-0.896
			c-0.632-3.673-1.212-7.043-1.755-10.199c-3.84,0-7.07,0-10.31,0C299.716,360.151,299.159,363.401,298.585,366.744z"/>
		<path d="M298.585,366.744c0.573-3.342,1.131-6.593,1.757-10.243c3.241,0,6.471,0,10.31,0c0.543,3.156,1.123,6.526,1.755,10.199
			c2.366,0.35,4.745,0.701,6.063,0.896c1.77,5.347,3.355,9.932,4.792,14.564c0.685,2.21,1.37,4.483,1.569,6.77
			c0.834,9.612,1.532,19.237,2.17,28.864c0.164,2.477,0.216,5.029-0.183,7.464c-0.989,6.033-5.29,9.514-11.423,9.54
			c-6.496,0.028-12.992,0.024-19.488,0.002c-6.835-0.023-11.246-3.876-11.844-10.743c-0.286-3.293-0.029-6.652,0.197-9.966
			c0.52-7.632,0.896-15.291,1.878-22.868c0.566-4.366,2.19-8.595,3.353-12.882c0.509-1.875,1.646-3.795,1.472-5.596
			c-0.426-4.428,1.158-6.222,5.562-5.603C297.126,367.227,297.78,366.911,298.585,366.744z M322.814,419.685
			c-7.942,0-15.514,0-23.22,0c0-9.135,0-17.689,0-26.765c7.259,0,14.174,0,21.368,0c-0.247-2.03-0.384-3.511-0.612-4.977
			c-1.438-9.243-2.527-10.192-11.604-10.193c-2.165,0-4.33,0-6.495,0c-8.918,0-10.325,0.898-11.423,9.738
			c-1.043,8.401-1.361,16.892-2.003,25.344c-0.251,3.31-0.924,6.649-0.688,9.923c0.477,6.611,3.699,9.323,10.243,9.328
			c4.496,0.003,8.993,0.001,13.489,0C319.981,432.081,322.854,429.053,322.814,419.685z M304.044,395.991c0,7.244,0,13.96,0,20.678
			c6.352,0,12.356,0,18.418,0c-0.638-7.141-1.238-13.858-1.848-20.678C315.02,395.991,309.746,395.991,304.044,395.991z
			 M315.85,374.861c-0.203-1.957-0.346-3.336-0.481-4.647c-6.849,0-13.245,0-19.796,0c0,1.676,0,3.052,0,4.647
			C302.292,374.861,308.688,374.861,315.85,374.861z M308.522,366.88c-1.057-2.957-1.934-5.407-2.81-7.857
			c-0.845,2.249-1.705,4.492-2.511,6.754c-0.084,0.234,0.156,0.584,0.313,1.103C304.86,366.88,306.252,366.88,308.522,366.88z"/>
		<path style="fill:#FFFFFF;" d="M322.814,419.685c0.041,9.368-2.833,12.396-10.944,12.398c-4.496,0.001-8.993,0.003-13.489,0
			c-6.544-0.005-9.766-2.717-10.243-9.328c-0.236-3.274,0.437-6.612,0.688-9.923c0.642-8.451,0.961-16.942,2.003-25.344
			c1.097-8.84,2.505-9.738,11.423-9.738c2.165,0,4.33,0,6.495,0c9.077,0,10.166,0.949,11.604,10.193
			c0.228,1.466,0.365,2.947,0.612,4.977c-7.194,0-14.109,0-21.368,0c0,9.076,0,17.629,0,26.765
			C307.3,419.685,314.872,419.685,322.814,419.685z"/>
		<path style="fill:#FFFFFF;" d="M304.044,395.991c5.701,0,10.975,0,16.57,0c0.609,6.82,1.21,13.537,1.848,20.678
			c-6.061,0-12.066,0-18.418,0C304.044,409.951,304.044,403.236,304.044,395.991z"/>
		<path style="fill:#FFFFFF;" d="M315.85,374.861c-7.162,0-13.558,0-20.277,0c0-1.595,0-2.971,0-4.647c6.551,0,12.947,0,19.796,0
			C315.505,371.525,315.647,372.904,315.85,374.861z"/>
		<path style="fill:#FFFFFF;" d="M308.522,366.88c-2.269,0-3.661,0-5.008,0c-0.157-0.519-0.397-0.868-0.313-1.103
			c0.806-2.262,1.666-4.505,2.511-6.754C306.588,361.473,307.464,363.923,308.522,366.88z"/>
	</g>
</g>
</svg>
