<?xml version="1.0" encoding="iso-8859-1"?>
<!-- Generator: Adobe Illustrator 25.0.0, SVG Export Plug-In . SVG Version: 6.00 Build 0)  -->
<svg version="1.1" id="Calque_1" xmlns="http://www.w3.org/2000/svg" xmlns:xlink="http://www.w3.org/1999/xlink" x="0px" y="0px"
	 viewBox="0 0 612 792" style="enable-background:new 0 0 612 792;" xml:space="preserve">
<g>
	<g>
		<path style="fill:#FFFFFF;" d="M246,346c40,0,80,0,120,0c0,33.333,0,66.667,0,100c-40,0-80,0-120,0
			C246,412.667,246,379.333,246,346z M287.453,433.876c10.431-0.527,19.702-5.46,24.151-17.084
			c3.012-7.869,8.067-13.225,16.003-15.947c1.092-0.375,2.1-0.999,3.138-1.527c9.677-4.92,13.666-13.34,13.92-23.659
			c0.22-8.922-4.528-15.216-12.25-17.313c-12.962-3.52-26.737,2.28-32.047,14.666c-3.802,8.868-9.354,14.825-18.389,18.303
			c-9.161,3.526-13.845,10.981-15.22,20.638C264.854,425.316,272.292,433.906,287.453,433.876z"/>
		<path d="M287.453,433.876c-15.161,0.03-22.599-8.561-20.695-21.924c1.376-9.656,6.059-17.112,15.22-20.638
			c9.035-3.478,14.587-9.435,18.389-18.303c5.31-12.385,19.084-18.185,32.047-14.666c7.722,2.097,12.47,8.391,12.25,17.313
			c-0.254,10.319-4.243,18.739-13.92,23.659c-1.037,0.527-2.046,1.152-3.138,1.527c-7.936,2.722-12.991,8.078-16.003,15.947
			C307.154,428.417,297.884,433.349,287.453,433.876z M314.3,391.48c-2.004-1.667-3.963-3.298-5.176-4.306
			c-5.948,4.877-11.263,9.235-16.79,13.767c1.606,1.879,3.408,3.987,5.261,6.156C304.949,403.537,311.281,399.509,314.3,391.48z
			 M340.068,375.111c-0.457-0.461-0.915-0.922-1.372-1.383c-4.8,3.091-9.6,6.182-14.932,9.615c3.994,3.518,6.925,6.098,10.18,8.965
			C338.423,387.186,340.344,381.539,340.068,375.111z M301.755,425.685c2.597-4.824,4.995-8.723,6.813-12.875
			c0.976-2.23-3.035-5.777-5.176-4.617c-3.681,1.994-7.107,4.46-11.087,7.014C295.641,418.906,298.276,421.827,301.755,425.685z
			 M308.886,406.675c1.578-0.273,2.903-0.166,3.829-0.722c3.804-2.283,7.45-4.826,11.227-7.155c2.041-1.259,4.228-2.28,7.012-3.761
			c-3.231-2.901-5.836-5.239-8.357-7.502C318.063,393.864,313.949,399.607,308.886,406.675z M320.694,369.956
			c7.808,6.478,8.104,6.478,18.57,0.251C338.13,362.564,332.959,361.546,320.694,369.956z M324.536,377.702
			c-2.604-1.803-4.936-3.418-7.729-5.352c-2.445,3.612-4.539,6.705-6.832,10.092c2.267,2.01,4.194,3.718,6.295,5.581
			c1.416-1.936,2.518-3.559,3.743-5.085C321.331,381.295,322.764,379.743,324.536,377.702z M288.291,402.497
			c-9.381,6.325-9.626,8.479-1.978,13.525c2.384-2.193,4.786-4.403,7.485-6.885C291.982,406.947,290.223,404.826,288.291,402.497z
			 M328.361,361.104c-8.245-1.648-16.673,1.722-20.99,8.906c1.342,0.836,2.687,1.673,3.149,1.961
			C316.962,368.046,322.699,364.552,328.361,361.104z M283.209,401.065c4.857-2.879,9.426-5.587,15.067-8.931
			c-2.395-1.167-4.07-2.677-4.975-2.306c-4.485,1.837-8.767,4.171-13.53,6.533C281.19,398.301,282.128,399.586,283.209,401.065z
			 M289.556,418.408c-1.886,4.166-3.54,7.822-5.195,11.477c0.363,0.463,0.725,0.926,1.088,1.389c4-1.045,8-2.089,12.81-3.346
			C294.98,424.341,292.663,421.806,289.556,418.408z M279.74,429.698c1.388-3.553,2.634-6.744,3.913-10.02
			c-2.02-1.877-3.868-3.595-5.9-5.483C273.295,423.88,273.692,426.844,279.74,429.698z M305.443,373.165
			c-8.323,13.043-8.353,13.148-4.264,16.079c2.591-4.376,5.158-8.711,7.813-13.195C307.693,374.993,306.698,374.185,305.443,373.165
			z M270.168,415.372c0.445,0.166,0.89,0.331,1.335,0.497c2.685-4.079,5.371-8.158,8.209-12.47
			c-0.982-1.133-2.002-2.309-4.086-4.713C273.544,405.052,271.856,410.212,270.168,415.372z"/>
		<path style="fill:#FFFFFF;" d="M314.3,391.48c-3.019,8.029-9.351,12.057-16.704,15.617c-1.854-2.169-3.655-4.277-5.261-6.156
			c5.527-4.532,10.841-8.889,16.79-13.767C310.336,388.182,312.296,389.813,314.3,391.48z"/>
		<path style="fill:#FFFFFF;" d="M340.068,375.111c0.276,6.428-1.646,12.076-6.124,17.196c-3.255-2.867-6.186-5.447-10.18-8.965
			c5.332-3.433,10.132-6.524,14.932-9.615C339.154,374.188,339.611,374.65,340.068,375.111z"/>
		<path style="fill:#FFFFFF;" d="M301.755,425.685c-3.479-3.858-6.114-6.779-9.449-10.478c3.98-2.555,7.405-5.021,11.087-7.014
			c2.141-1.159,6.152,2.388,5.176,4.617C306.75,416.963,304.352,420.861,301.755,425.685z"/>
		<path style="fill:#FFFFFF;" d="M308.886,406.675c5.063-7.068,9.178-12.811,13.711-19.14c2.521,2.263,5.126,4.601,8.357,7.502
			c-2.783,1.481-4.971,2.502-7.012,3.761c-3.777,2.329-7.424,4.872-11.227,7.155C311.788,406.509,310.464,406.402,308.886,406.675z"
			/>
		<path style="fill:#FFFFFF;" d="M320.694,369.956c12.265-8.409,17.435-7.392,18.57,0.251
			C328.798,376.433,328.502,376.433,320.694,369.956z"/>
		<path style="fill:#FFFFFF;" d="M324.536,377.702c-1.772,2.041-3.205,3.593-4.523,5.237c-1.224,1.526-2.327,3.149-3.743,5.085
			c-2.101-1.863-4.029-3.572-6.295-5.581c2.293-3.388,4.387-6.48,6.832-10.092C319.599,374.284,321.932,375.899,324.536,377.702z"/>
		<path style="fill:#FFFFFF;" d="M288.291,402.497c1.932,2.329,3.691,4.45,5.507,6.64c-2.699,2.483-5.101,4.693-7.485,6.885
			C278.666,410.976,278.91,408.822,288.291,402.497z"/>
		<path style="fill:#FFFFFF;" d="M328.361,361.104c-5.662,3.448-11.398,6.943-17.841,10.867c-0.462-0.288-1.807-1.125-3.149-1.961
			C311.687,362.826,320.116,359.455,328.361,361.104z"/>
		<path style="fill:#FFFFFF;" d="M283.209,401.065c-1.081-1.479-2.02-2.763-3.439-4.705c4.763-2.362,9.045-4.696,13.53-6.533
			c0.905-0.371,2.58,1.139,4.975,2.306C292.635,395.478,288.066,398.186,283.209,401.065z"/>
		<path style="fill:#FFFFFF;" d="M289.556,418.408c3.107,3.398,5.424,5.933,8.704,9.52c-4.811,1.256-8.81,2.301-12.81,3.346
			c-0.363-0.463-0.725-0.926-1.088-1.389C286.015,426.229,287.67,422.574,289.556,418.408z"/>
		<path style="fill:#FFFFFF;" d="M279.74,429.698c-6.049-2.854-6.446-5.818-1.987-15.502c2.032,1.888,3.88,3.605,5.9,5.483
			C282.374,422.954,281.128,426.144,279.74,429.698z"/>
		<path style="fill:#FFFFFF;" d="M305.443,373.165c1.255,1.02,2.25,1.829,3.549,2.884c-2.655,4.484-5.222,8.819-7.813,13.195
			C297.09,386.312,297.12,386.208,305.443,373.165z"/>
		<path style="fill:#FFFFFF;" d="M270.168,415.372c1.688-5.16,3.376-10.321,5.459-16.686c2.084,2.404,3.103,3.58,4.086,4.713
			c-2.839,4.312-5.524,8.391-8.209,12.47C271.058,415.704,270.613,415.538,270.168,415.372z"/>
	</g>
</g>
</svg>
