<?xml version="1.0" encoding="iso-8859-1"?>
<!-- Generator: Adobe Illustrator 25.0.0, SVG Export Plug-In . SVG Version: 6.00 Build 0)  -->
<svg version="1.1" id="Calque_1" xmlns="http://www.w3.org/2000/svg" xmlns:xlink="http://www.w3.org/1999/xlink" x="0px" y="0px"
	 viewBox="0 0 612 792" style="enable-background:new 0 0 612 792;" xml:space="preserve">
<g>
	<g>
		<path style="fill:#FFFFFF;" d="M246,446c0-33.24,0-66.602,0-100c39.965,0,79.93,0,120,0c0,33.255,0,66.546,0,100
			C326.07,446,286.035,446,246,446z M308.395,413.232c0.546,3.913-0.276,9.217,1.846,10.991c4.974,4.157,11.372,9.112,17.166,9.077
			c5.806-0.035,11.734-5.498,17.241-9.138c1.179-0.779,1.104-3.958,1.047-6.016c-0.141-5.068,1.277-11.789-1.378-14.807
			c-4.13-4.695-11.102-9.375-16.899-9.41c-5.78-0.035-12.105,5.029-17.147,9.139C308.223,404.738,308.929,409.795,308.395,413.232z
			 M324.643,377.951c2.509-8.181-1.761-12-8.279-16.083c-7.257-4.546-12.553-4.144-19.742,0.086
			c-6.616,3.894-8.849,7.992-8.868,15.6c-0.02,7.846,2.476,11.874,9.231,15.889c7.211,4.286,12.36,4.315,19.299-0.166
			C322.356,389.357,327.586,386.167,324.643,377.951z M267.164,412.016c0.752,6.448-1.821,12.104,5.057,14.831
			c4.736,1.877,9.47,7.205,13.516,6.573c6.153-0.961,11.889-5.479,17.384-9.12c1.271-0.842,1.211-4.257,1.135-6.467
			c-0.173-5.039,1.117-11.745-1.566-14.709c-4.191-4.632-11.201-9.238-16.978-9.19c-5.799,0.048-12.076,5.178-17.069,9.366
			C266.615,405.001,267.425,410.095,267.164,412.016z"/>
		<path d="M308.395,413.232c0.535-3.437-0.172-8.494,1.877-10.164c5.043-4.111,11.367-9.175,17.147-9.139
			c5.796,0.035,12.768,4.715,16.899,9.41c2.655,3.018,1.237,9.738,1.378,14.807c0.057,2.058,0.132,5.236-1.047,6.016
			c-5.508,3.64-11.435,9.103-17.241,9.138c-5.793,0.035-12.192-4.919-17.166-9.077C308.118,422.449,308.94,417.145,308.395,413.232z
			 M341.721,413.764c-0.507-3.177,0.074-7.37-1.696-8.988c-3.57-3.263-8.414-7.027-12.737-7.033
			c-4.326-0.006-8.915,3.98-12.844,6.941c-1.299,0.979-1.251,4.218-1.207,6.412c0.079,3.889-0.765,8.973,1.305,11.368
			c3.055,3.534,8.316,7.037,12.649,7.052c4.324,0.015,9.185-3.703,12.774-6.937C341.749,420.971,341.21,416.781,341.721,413.764z"/>
		<path d="M324.643,377.951c2.943,8.215-2.287,11.406-8.359,15.326c-6.94,4.481-12.088,4.452-19.299,0.166
			c-6.755-4.015-9.251-8.043-9.231-15.889c0.019-7.608,2.252-11.706,8.868-15.6c7.189-4.231,12.485-4.632,19.742-0.086
			C322.882,365.951,327.152,369.77,324.643,377.951z M292.103,377.679c0.535,3.053,0.019,7.246,1.815,8.864
			c3.602,3.243,8.484,6.991,12.809,6.957c4.347-0.035,8.929-4.065,12.833-7.088c1.273-0.986,1.061-4.322,0.963-6.559
			c-0.17-3.874,0.555-8.87-1.53-11.318c-2.933-3.445-8.123-6.907-12.283-6.831c-4.389,0.08-9.23,3.724-12.827,6.972
			C292.092,370.294,292.638,374.507,292.103,377.679z"/>
		<path d="M267.164,412.016c0.261-1.921-0.549-7.015,1.48-8.717c4.992-4.188,11.269-9.318,17.069-9.366
			c5.777-0.048,12.787,4.558,16.978,9.19c2.683,2.964,1.393,9.67,1.566,14.709c0.076,2.21,0.136,5.624-1.135,6.467
			c-5.495,3.641-11.231,8.159-17.384,9.12c-4.046,0.632-8.781-4.695-13.516-6.573C265.343,424.12,267.915,418.463,267.164,412.016z
			 M300.503,413.699c-0.536-3.124-0.007-7.294-1.789-8.911c-3.587-3.255-8.428-7.014-12.761-7.026
			c-4.323-0.012-8.875,4.008-12.858,6.906c-1.203,0.876-1.182,3.911-1.132,5.942c0.1,4.059-0.83,9.295,1.295,11.874
			c2.942,3.571,8.305,7.031,12.637,7.037c4.332,0.007,9.191-3.717,12.787-6.955C300.475,420.951,299.963,416.77,300.503,413.699z"/>
		<path style="fill:#FFFFFF;" d="M341.721,413.764c-0.511,3.017,0.028,7.207-1.756,8.814c-3.589,3.234-8.45,6.952-12.774,6.937
			c-4.333-0.015-9.594-3.518-12.649-7.052c-2.07-2.394-1.226-7.479-1.305-11.368c-0.044-2.193-0.092-5.433,1.207-6.412
			c3.929-2.961,8.517-6.947,12.844-6.941c4.323,0.006,9.168,3.769,12.737,7.033C341.795,406.394,341.215,410.587,341.721,413.764z
			 M329.413,403.83c-1.945-0.583-3.087-1.344-4.009-1.135c-6.273,1.425-9.335,5.456-8.972,12.018
			c0.082,1.476,1.296,2.89,1.989,4.332c0.792-1.343,2.358-2.763,2.234-4.015c-0.424-4.292,1.065-6.993,5.094-8.484
			C326.75,406.176,327.545,405.245,329.413,403.83z"/>
		<path style="fill:#FFFFFF;" d="M292.103,377.679c0.534-3.172-0.011-7.385,1.781-9.003c3.597-3.248,8.438-6.892,12.827-6.972
			c4.16-0.076,9.35,3.386,12.283,6.831c2.085,2.448,1.359,7.444,1.53,11.318c0.098,2.236,0.31,5.573-0.963,6.559
			c-3.905,3.023-8.486,7.054-12.833,7.088c-4.325,0.034-9.207-3.714-12.809-6.957C292.122,384.925,292.638,380.732,292.103,377.679z
			 M309.015,367.949c-2.155-0.782-3.201-1.572-4.076-1.413c-5.797,1.053-9.598,5.83-9.198,11.85
			c0.102,1.541,1.492,2.997,2.291,4.492c0.7-1.572,2.045-3.177,1.967-4.71c-0.173-3.434,0.834-5.726,4.038-7.112
			C305.379,370.475,306.553,369.507,309.015,367.949z"/>
		<path style="fill:#FFFFFF;" d="M300.503,413.699c-0.54,3.071-0.027,7.252-1.821,8.866c-3.596,3.237-8.455,6.961-12.787,6.955
			c-4.332-0.007-9.695-3.466-12.637-7.037c-2.125-2.579-1.195-7.815-1.295-11.874c-0.05-2.031-0.072-5.066,1.132-5.942
			c3.983-2.898,8.534-6.917,12.858-6.906c4.333,0.012,9.174,3.771,12.761,7.026C300.496,406.405,299.967,410.575,300.503,413.699z
			 M288.372,403.867c-2.254-0.691-3.288-1.386-4.142-1.209c-6.072,1.256-9.418,5.504-9.065,11.846
			c0.086,1.547,1.455,3.023,2.234,4.531c0.657-1.467,1.971-2.995,1.844-4.391c-0.353-3.885,0.961-6.352,4.573-7.785
			C284.997,406.39,285.993,405.456,288.372,403.867z"/>
		<path d="M329.413,403.83c-1.868,1.414-2.663,2.346-3.664,2.716c-4.029,1.492-5.518,4.193-5.094,8.484
			c0.124,1.252-1.443,2.672-2.234,4.015c-0.693-1.442-1.908-2.856-1.989-4.332c-0.363-6.563,2.699-10.594,8.972-12.018
			C326.325,402.486,327.467,403.247,329.413,403.83z"/>
		<path d="M309.015,367.949c-2.461,1.558-3.636,2.525-4.978,3.106c-3.203,1.385-4.211,3.678-4.038,7.112
			c0.077,1.533-1.268,3.138-1.967,4.71c-0.798-1.495-2.188-2.95-2.291-4.492c-0.4-6.019,3.4-10.796,9.198-11.85
			C305.813,366.377,306.86,367.167,309.015,367.949z"/>
		<path d="M288.372,403.867c-2.378,1.588-3.375,2.523-4.556,2.992c-3.612,1.434-4.926,3.9-4.573,7.785
			c0.127,1.396-1.188,2.923-1.844,4.391c-0.779-1.509-2.147-2.984-2.234-4.531c-0.354-6.342,2.992-10.59,9.065-11.846
			C285.084,402.481,286.117,403.176,288.372,403.867z"/>
	</g>
</g>
</svg>
