<?xml version="1.0" encoding="iso-8859-1"?>
<!-- Generator: Adobe Illustrator 25.0.0, SVG Export Plug-In . SVG Version: 6.00 Build 0)  -->
<svg version="1.1" id="Calque_1" xmlns="http://www.w3.org/2000/svg" xmlns:xlink="http://www.w3.org/1999/xlink" x="0px" y="0px"
	 viewBox="0 0 612 792" style="enable-background:new 0 0 612 792;" xml:space="preserve">
<g>
	<g>
		<path style="fill:#FFFFFF;" d="M246,346c40,0,80,0,120,0c0,33.333,0,66.667,0,100c-40,0-80,0-120,0
			C246,412.667,246,379.333,246,346z M285.189,412.063c11.323-0.037,18.506-7.947,15.603-18.854
			c-2.142-8.047-6.082-15.715-9.976-23.157c-2.384-4.556-9.125-4.432-11.589,0.155c-3.75,6.979-7.539,14.15-9.745,21.697
			C266.099,403.48,273.318,412.102,285.189,412.063z M321.992,395.94c7.576-0.004,14.647-5.729,16.562-13.423
			c1.66-6.671-1.244-13.842-8.466-16.783c-7.908-3.22-16.332-5.37-24.705-7.181c-5.17-1.118-9.183,4.032-7.081,9.01
			c3.086,7.307,6.654,14.473,10.71,21.286C311.736,393.426,316.392,395.914,321.992,395.94z M299.36,416.831
			c0.602,6.17,3.052,11.634,8.996,14.857c5.669,3.073,11.773,2.626,16.395-1.3c6.529-5.547,12.443-11.925,17.985-18.484
			c3.18-3.764,0.724-9.245-4.282-9.702c-8.41-0.767-16.952-1.399-25.337-0.756C304.687,402.092,299.237,408.923,299.36,416.831z"/>
		<path d="M285.189,412.063c-11.872,0.039-19.09-8.583-15.707-20.16c2.206-7.547,5.994-14.718,9.745-21.697
			c2.464-4.586,9.205-4.711,11.589-0.155c3.894,7.442,7.835,15.111,9.976,23.157C303.696,404.116,296.512,412.026,285.189,412.063z
			 M284.827,409.215c9.359,0.078,15.323-6.762,12.603-15.752c-2.242-7.409-5.866-14.434-9.258-21.446
			c-1.503-3.106-4.712-3.125-6.167-0.031c-3.453,7.343-7.182,14.694-9.4,22.443C270.253,402.646,276.229,409.143,284.827,409.215z"
			/>
		<path d="M321.992,395.94c-5.6-0.026-10.256-2.514-12.98-7.091c-4.056-6.813-7.624-13.979-10.71-21.286
			c-2.102-4.978,1.911-10.128,7.081-9.01c8.373,1.81,16.797,3.96,24.705,7.181c7.222,2.941,10.126,10.112,8.466,16.783
			C336.639,390.212,329.568,395.936,321.992,395.94z M335.33,378.926c-0.017-5.974-3.55-9.801-8.594-11.619
			c-6.807-2.453-13.905-4.186-20.981-5.764c-3.256-0.726-5.562,1.623-4.239,4.694c3.134,7.276,6.52,14.526,10.66,21.26
			c3.232,5.257,8.662,6.711,13.359,5.108C331.176,390.683,335.363,384.833,335.33,378.926z"/>
		<path d="M299.36,416.831c-0.123-7.908,5.327-14.739,13.758-15.386c8.384-0.643,16.927-0.011,25.337,0.756
			c5.006,0.457,7.462,5.938,4.282,9.702c-5.542,6.559-11.456,12.937-17.985,18.484c-4.621,3.926-10.725,4.374-16.395,1.3
			C302.412,428.466,299.962,423.001,299.36,416.831z M323.121,403.644c-0.005,0.079-0.01,0.159-0.016,0.238
			c-2.496,0-5-0.137-7.485,0.027c-6.232,0.41-10.864,3.933-12.324,9.194c-1.445,5.208,1.166,12.207,5.777,15.486
			c4.171,2.966,10.02,2.968,14.732-1.231c5.56-4.956,10.57-10.574,15.469-16.208c2.455-2.823,1.012-5.939-2.731-6.417
			C332.095,404.166,327.597,403.99,323.121,403.644z"/>
		<path style="fill:#FFFFFF;" d="M284.827,409.215c-8.599-0.071-14.574-6.569-12.221-14.786c2.218-7.748,5.947-15.099,9.4-22.443
			c1.455-3.094,4.664-3.076,6.167,0.031c3.392,7.011,7.016,14.036,9.258,21.446C300.151,402.453,294.187,409.292,284.827,409.215z
			 M286.056,380.266c-4.631-0.703-9.977,11.443-8.347,18.903c0.46,0,1.303,0.138,1.363-0.02
			C281.401,392.989,283.659,386.801,286.056,380.266z"/>
		<path style="fill:#FFFFFF;" d="M335.33,378.926c0.033,5.907-4.154,11.756-9.795,13.681c-4.698,1.602-10.127,0.148-13.359-5.108
			c-4.14-6.734-7.525-13.984-10.66-21.26c-1.323-3.071,0.983-5.421,4.239-4.694c7.076,1.578,14.175,3.31,20.981,5.764
			C331.78,369.126,335.314,372.953,335.33,378.926z M320.619,386.332c-2.923-5.331-5.641-10.487-8.595-15.504
			c-0.561-0.952-2.058-1.353-4.086-2.6C311.645,380.782,315.907,386.49,320.619,386.332z"/>
		<path style="fill:#FFFFFF;" d="M323.121,403.644c4.476,0.346,8.974,0.522,13.421,1.089c3.744,0.478,5.186,3.594,2.731,6.417
			c-4.899,5.634-9.909,11.253-15.469,16.208c-4.711,4.199-10.561,4.197-14.732,1.231c-4.611-3.278-7.222-10.278-5.777-15.486
			c1.46-5.261,6.092-8.785,12.324-9.194c2.485-0.163,4.99-0.027,7.485-0.027C323.111,403.803,323.116,403.724,323.121,403.644z
			 M309.293,412.572c8.186-0.375,15.219-0.697,22.57-1.034C328.325,407.686,315.063,408.076,309.293,412.572z"/>
		<path d="M286.056,380.266c-2.396,6.535-4.654,12.723-6.984,18.884c-0.06,0.158-0.903,0.02-1.363,0.02
			C276.078,391.709,281.425,379.563,286.056,380.266z"/>
		<path d="M320.619,386.332c-4.711,0.158-8.974-5.549-12.681-18.104c2.028,1.247,3.525,1.648,4.086,2.6
			C314.978,375.845,317.696,381.001,320.619,386.332z"/>
		<path d="M309.293,412.572c5.77-4.496,19.032-4.886,22.57-1.034C324.513,411.875,317.48,412.197,309.293,412.572z"/>
	</g>
</g>
</svg>
