<?xml version="1.0" encoding="iso-8859-1"?>
<!-- Generator: Adobe Illustrator 25.0.0, SVG Export Plug-In . SVG Version: 6.00 Build 0)  -->
<svg version="1.1" id="Calque_1" xmlns="http://www.w3.org/2000/svg" xmlns:xlink="http://www.w3.org/1999/xlink" x="0px" y="0px"
	 viewBox="0 0 612 792" style="enable-background:new 0 0 612 792;" xml:space="preserve">
<g>
	<g>
		<path style="fill:#FFFFFF;" d="M246,346c40,0,80,0,120,0c0,33.333,0,66.667,0,100c-40,0-80,0-120,0
			C246,412.667,246,379.333,246,346z M288.163,406.606c0,6.487-0.092,12.976,0.021,19.461c0.175,10.044,6.72,15.873,17.613,15.851
			c10.412-0.022,16.109-5.536,16.185-15.908c0.089-12.142,0.096-24.285-0.027-36.426c-0.03-2.937,0.404-4.612,3.673-5.824
			c7.516-2.785,8.697-12.091,2.253-16.744c-2.149-1.551-2.948-2.883-2.907-5.562c0.081-5.238-4.154-9.024-9.215-9.15
			c-1.433-0.036-3.182-0.375-4.219-1.249c-6.779-5.708-12.266,1.843-18.522,1.822c-2.02-0.007-4.113,2.836-6.033,4.533
			c-0.539,0.476-0.512,1.548-0.869,2.286c-0.738,1.522-1.259,3.301-2.398,4.451c-5.527,5.584-4.773,12.889,1.712,17.481
			c1.316,0.932,2.542,2.954,2.608,4.524C288.32,392.96,288.158,399.786,288.163,406.606z"/>
		<path d="M288.16,406.606c-0.002-6.82,0.16-13.646-0.124-20.454c-0.065-1.57-1.291-3.592-2.608-4.524
			c-6.485-4.592-7.24-11.897-1.712-17.481c1.139-1.15,1.66-2.929,2.398-4.451c0.358-0.738,0.33-1.809,0.869-2.286
			c1.92-1.697,4.014-4.54,6.033-4.533c6.256,0.021,11.743-7.531,18.522-1.822c1.037,0.873,2.786,1.213,4.219,1.249
			c5.06,0.126,9.295,3.912,9.215,9.15c-0.041,2.679,0.758,4.011,2.907,5.562c6.445,4.653,5.263,13.959-2.253,16.744
			c-3.269,1.212-3.703,2.886-3.673,5.824c0.124,12.141,0.117,24.285,0.027,36.426c-0.076,10.372-5.773,15.886-16.185,15.908
			c-10.892,0.023-17.438-5.806-17.613-15.851C288.071,419.582,288.163,413.093,288.16,406.606z M303.556,425.761
			c0.774,0.171,1.549,0.342,2.323,0.513c0.854-2.753,2.348-5.483,2.444-8.262c0.315-9.152,0.003-18.326,0.244-27.483
			c0.041-1.54,1.635-3.039,2.511-4.557c0.875,1.511,2.467,3.002,2.507,4.535c0.238,9.157,0.108,18.324,0.124,27.487
			c0.011,5.993-2.389,10.489-7.66,13.62c-1.355,0.805-1.961,2.869-3.197,4.804c9.486,1.242,14.116-2.541,14.195-10.709
			c0.121-12.494,0.225-24.995-0.061-37.484c-0.11-4.789,0.47-7.898,6.183-8.416c3.21-0.291,4.746-3.124,3.859-6.387
			c-0.9-3.31-3.397-4.288-6.631-3.434c-0.958,0.253-1.923,0.95-2.819,0.852c-1.319-0.146-2.579-0.823-3.864-1.274
			c0.833-1.006,1.642-2.034,2.505-3.014c1.409-1.599,3.934-3.128,3.992-4.758c0.064-1.788-2.134-3.656-3.503-5.727
			c-1.807,2.178-2.772,3.342-3.738,4.506c-0.944-1.18-2.121-2.243-2.786-3.563c-1.81-3.59-3.987-4.112-7.939-1.643
			c0.096,0.317,0.26,0.63,0.279,0.951c0.132,2.272,1.04,6.119,0.207,6.546c-3.524,1.805-2.834-2.229-4.04-3.794
			c-1.8-2.335-4.387-3.265-6.303-0.894c-1.076,1.331-0.711,4.061-0.458,6.094c0.08,0.644,2.021,0.921,2.878,1.643
			c0.866,0.729,1.443,1.8,2.147,2.721c-1.093,0.493-2.325,1.577-3.252,1.359c-2.196-0.514-4.247-1.646-6.403-2.548
			c-3.688,3.955-3.436,9.209,1.141,10.195c5.036,1.086,4.746,4.213,4.754,7.685c0.029,12.995,0.003,25.99,0.024,38.985
			c0.006,3.996,0.445,7.834,5.076,10.804c0-2.573,0-4.351,0-6.129c0.001-16.827-0.067-33.655,0.125-50.48
			c0.017-1.467,1.748-2.915,2.684-4.372c0.814,1.422,2.307,2.831,2.335,4.268c0.203,10.659,0.116,21.323,0.119,31.986
			C303.557,415.511,303.556,420.636,303.556,425.761z"/>
		<path style="fill:#FFFFFF;" d="M303.556,425.761c0-5.125,0.001-10.249,0-15.374c-0.003-10.663,0.085-21.327-0.119-31.986
			c-0.027-1.437-1.52-2.846-2.335-4.268c-0.935,1.457-2.667,2.905-2.684,4.372c-0.193,16.825-0.124,33.653-0.125,50.48
			c0,1.778,0,3.556,0,6.129c-4.631-2.97-5.069-6.808-5.076-10.804c-0.021-12.995,0.005-25.99-0.024-38.985
			c-0.008-3.472,0.282-6.599-4.754-7.685c-4.577-0.987-4.829-6.24-1.141-10.195c2.156,0.902,4.207,2.033,6.403,2.548
			c0.927,0.217,2.159-0.867,3.252-1.359c-0.704-0.921-1.281-1.992-2.147-2.721c-0.857-0.721-2.798-0.999-2.878-1.643
			c-0.252-2.033-0.617-4.763,0.458-6.094c1.916-2.37,4.503-1.44,6.303,0.894c1.206,1.565,0.516,5.599,4.04,3.794
			c0.834-0.427-0.074-4.274-0.207-6.546c-0.019-0.321-0.182-0.634-0.277-0.952c3.95-2.468,6.127-1.947,7.937,1.644
			c0.666,1.32,1.843,2.383,2.786,3.563c0.966-1.164,1.932-2.328,3.738-4.506c1.369,2.071,3.567,3.94,3.503,5.727
			c-0.058,1.63-2.583,3.159-3.992,4.758c-0.863,0.98-1.672,2.008-2.505,3.014c1.285,0.451,2.546,1.128,3.864,1.274
			c0.896,0.099,1.861-0.599,2.819-0.852c3.234-0.854,5.731,0.124,6.631,3.434c0.887,3.263-0.65,6.096-3.859,6.387
			c-5.714,0.518-6.293,3.627-6.183,8.416c0.286,12.489,0.183,24.989,0.061,37.484c-0.079,8.168-4.709,11.951-14.195,10.709
			c1.237-1.934,1.843-3.999,3.197-4.804c5.272-3.131,7.671-7.627,7.66-13.62c-0.016-9.163,0.115-18.33-0.124-27.487
			c-0.04-1.532-1.632-3.024-2.507-4.535c-0.876,1.518-2.471,3.017-2.511,4.557c-0.242,9.157,0.071,18.33-0.244,27.483
			c-0.096,2.779-1.59,5.51-2.444,8.262C305.105,426.103,304.33,425.932,303.556,425.761z"/>
	</g>
</g>
</svg>
