<?xml version="1.0" encoding="iso-8859-1"?>
<!-- Generator: Adobe Illustrator 25.0.0, SVG Export Plug-In . SVG Version: 6.00 Build 0)  -->
<svg version="1.1" id="Calque_1" xmlns="http://www.w3.org/2000/svg" xmlns:xlink="http://www.w3.org/1999/xlink" x="0px" y="0px"
	 viewBox="0 0 612 792" style="enable-background:new 0 0 612 792;" xml:space="preserve">
<g>
	<g>
		<path style="fill:#FFFFFF;" d="M246,446c0-33.333,0-66.667,0-100c40,0,80,0,120,0c0,33.333,0,66.667,0,100
			C326,446,286,446,246,446z M288.461,426.397c0.676-3.464,0.866-6.445,1.92-9.08c0.627-1.568,2.612-2.594,3.987-3.864
			c0.56,1.355,1.345,2.663,1.636,4.074c0.763,3.703,1.17,7.482,1.999,11.168c0.484,2.152,1.038,3.644-1.171,5.592
			c-3.338,2.943-1.893,6.975,2.487,7.483c3.542,0.411,7.217,0.544,10.726,0.048c2.319-0.328,5.715-1.53,6.315-3.181
			c0.623-1.716-1.539-4.444-2.776-7.438c0.665-3.676,1.459-8.39,2.398-13.075c0.319-1.594,1.002-3.115,1.519-4.67
			c1.436,1.405,3.466,2.566,4.169,4.273c1.074,2.609,1.232,5.595,1.828,8.67c-0.792,0.732-1.905,1.759-3.317,3.062
			c5.388,1.176,9.523-0.257,11.077-6.177c2.238-8.525-1.463-15.298-11.334-18.159c12.616-5.448,14.621,5.435,20.12,10.865
			c-0.979,1.358-1.981,2.746-2.982,4.134c0.216,0.419,0.433,0.837,0.649,1.256c1.78-0.67,4.626-0.889,5.139-2.097
			c1.458-3.437,2.737-7.309,2.592-10.95c-0.107-2.695-2.473-5.344-3.974-7.932c-4.059-7-8.516-8.934-16.259-7.153
			c-0.643,0.148-1.238,0.529-1.883,0.642c-0.642,0.113-1.319,0.025-1.039,0.025c3.173-3.563,8.062-6.805,9.497-11.18
			c2.271-6.924,3.116-14.628,2.947-21.965c-0.225-9.754-9.235-14.616-18.616-10.87c1.245,1.844,2.478,3.672,3.696,5.477
			c-3.39,0-6.424,0-10.983,0c4.225,8.575,7.958,16.148,11.972,24.295c-0.385,0.305-1.768,1.4-3.744,2.965
			c-1.167-2.547-2.278-4.541-3.012-6.665c-1.349-3.905-3.296-6.858-7.991-6.9c-4.673-0.042-6.741,2.794-8.139,6.713
			c-0.786,2.202-1.94,4.273-3.163,6.911c-2.036-1.764-3.339-2.893-4.642-4.022c0.523,0.076,1.047,0.151,1.57,0.227
			c3.644-7.587,7.288-15.175,11.395-23.727c-4.347,0-7.098,0-10.498,0c1.333-2.234,2.307-3.866,3.302-5.533
			c-10.737-3.319-18.685,1.912-18.874,12.856c-0.084,4.889,1.922,9.805,1.918,14.708c-0.005,6.986,3.823,11.027,9.009,14.496
			c0.938,0.627,1.858,1.281,3.721,2.569c-14.973-2.895-17.124-1.841-23.604,10.697c-0.305,0.591-0.628,1.173-0.934,1.764
			c-1.782,3.446-0.687,10.774,2.319,13.015c1.298,0.968,3.293,1.002,4.971,1.46c0.157-0.389,0.314-0.778,0.471-1.167
			c-1.003-1.406-2.006-2.812-2.788-3.909c2.6-3.606,4.686-7.207,7.46-10.162c3.35-3.568,7.477-2.81,12.325-1.119
			c-8.797,4.513-13.873,12.907-11.603,18.17c2.335,5.415,6.391,7.798,11.135,6.134C290.244,428.065,289.227,427.113,288.461,426.397
			z"/>
		<path d="M288.461,426.397c0.766,0.716,1.783,1.668,2.943,2.753c-4.745,1.663-8.801-0.719-11.135-6.134
			c-2.27-5.264,2.806-13.657,11.603-18.17c-4.848-1.691-8.975-2.45-12.325,1.119c-2.774,2.955-4.859,6.556-7.46,10.162
			c0.783,1.097,1.785,2.503,2.788,3.909c-0.157,0.389-0.314,0.778-0.471,1.167c-1.678-0.458-3.673-0.492-4.971-1.46
			c-3.007-2.242-4.102-9.569-2.319-13.015c0.306-0.591,0.628-1.173,0.934-1.764c6.48-12.538,8.631-13.591,23.604-10.697
			c-1.864-1.288-2.784-1.942-3.721-2.569c-5.186-3.47-9.014-7.511-9.009-14.496c0.004-4.903-2.002-9.818-1.918-14.708
			c0.189-10.944,8.137-16.175,18.874-12.856c-0.995,1.667-1.969,3.299-3.302,5.533c3.4,0,6.151,0,10.498,0
			c-4.107,8.552-7.751,16.14-11.395,23.727c-0.523-0.076-1.047-0.151-1.57-0.227c1.303,1.129,2.606,2.258,4.642,4.022
			c1.224-2.638,2.378-4.709,3.163-6.911c1.398-3.919,3.465-6.755,8.139-6.713c4.695,0.042,6.642,2.996,7.991,6.9
			c0.734,2.124,1.845,4.118,3.012,6.665c1.976-1.565,3.358-2.66,3.744-2.965c-4.014-8.146-7.746-15.72-11.972-24.295
			c4.558,0,7.593,0,10.983,0c-1.218-1.806-2.452-3.633-3.696-5.477c9.381-3.746,18.391,1.116,18.616,10.87
			c0.169,7.337-0.676,15.04-2.947,21.965c-1.435,4.375-6.324,7.617-9.497,11.18c-0.28,0,0.397,0.088,1.039-0.025
			c0.645-0.113,1.24-0.494,1.883-0.642c7.743-1.781,12.2,0.153,16.259,7.153c1.501,2.588,3.866,5.237,3.974,7.932
			c0.145,3.641-1.133,7.513-2.592,10.95c-0.513,1.208-3.358,1.427-5.139,2.097c-0.216-0.419-0.433-0.837-0.649-1.256
			c1.001-1.388,2.003-2.776,2.982-4.134c-5.498-5.43-7.504-16.313-20.12-10.865c9.871,2.861,13.572,9.634,11.334,18.159
			c-1.554,5.92-5.689,7.354-11.077,6.177c1.412-1.303,2.524-2.33,3.317-3.062c-0.595-3.076-0.753-6.062-1.828-8.67
			c-0.703-1.707-2.734-2.868-4.169-4.273c-0.517,1.555-1.2,3.076-1.519,4.67c-0.939,4.685-1.733,9.4-2.398,13.075
			c1.237,2.994,3.399,5.722,2.776,7.438c-0.6,1.651-3.996,2.853-6.315,3.181c-3.509,0.497-7.184,0.363-10.726-0.048
			c-4.38-0.508-5.826-4.541-2.487-7.483c2.209-1.948,1.655-3.44,1.171-5.592c-0.828-3.686-1.235-7.465-1.999-11.168
			c-0.291-1.41-1.076-2.719-1.636-4.074c-1.375,1.27-3.36,2.295-3.987,3.864C289.327,419.952,289.137,422.932,288.461,426.397z
			 M294.819,400.057c1.257,3.729,1.788,7.751,3.913,10.574c1.056,1.402,5.038,0.592,7.694,0.804c0.66,0.053,1.341,0.101,1.965,0.3
			c4.026,1.286,5.957-0.859,6.851-4.333c2.256-8.767,0.894-17.234-3.382-24.994c-2.971-5.392-9.63-5.027-12.183,0.782
			C297.389,388.399,296.445,394.2,294.819,400.057z M295.947,361.553c-3.805,0-8.339,0.639-8.584-0.115
			c-0.892-2.749-0.353-5.962-0.353-11.085c-1.595,2.414-2.924,4.047-3.842,5.886c-2.705,5.415-1.868,10.964-0.46,16.561
			c1.005,3.994,3.386,4.304,5.492,1.542C291.157,370.467,293.32,365.986,295.947,361.553z M316.165,361.91
			c2.554,4.199,4.889,8.714,7.897,12.724c1.703,2.27,4.433,2.166,4.944-1.286c0.673-4.54,1.179-9.195,0.924-13.754
			c-0.189-3.385-2.308-6.147-4.863-7.127c0,3.142,0.788,6.429-0.347,8.793C324.188,362.371,319.953,361.705,316.165,361.91z
			 M311.01,420.621c0.654-6.021-2.252-5.87-4.978-5.876c-2.702-0.005-5.821-0.16-5.276,3.883c0.523,3.879,1.439,7.727,2.522,11.491
			c0.246,0.855,1.858,1.718,2.909,1.81c0.796,0.07,2.232-0.924,2.464-1.714C309.754,426.455,310.543,422.602,311.01,420.621z
			 M312.235,438.728c-2.145-3.95-2.769-4.352-7.872-3.752c-1.656,0.195-3.195,1.394-4.787,2.133c0.21,0.54,0.42,1.079,0.629,1.619
			C304.028,438.728,307.85,438.728,312.235,438.728z M328.789,380.572c-0.49-0.416-0.979-0.833-1.469-1.249
			c-1.875,1.535-3.585,3.362-5.666,4.53c-2.577,1.447-3.962,2.734-0.731,6.182C323.696,386.699,326.242,383.635,328.789,380.572z
			 M292.658,389.824c0.734-7.204-6.537-6.492-8.153-10.362C284.572,384.587,287.732,387.206,292.658,389.824z"/>
		<path style="fill:#FFFFFF;" d="M294.819,400.057c1.626-5.857,2.57-11.658,4.859-16.867c2.553-5.809,9.212-6.174,12.183-0.782
			c4.276,7.759,5.638,16.226,3.382,24.994c-0.894,3.474-2.825,5.619-6.851,4.333c-0.624-0.199-1.305-0.247-1.965-0.3
			c-2.656-0.212-6.638,0.598-7.694-0.804C296.608,407.808,296.076,403.786,294.819,400.057z"/>
		<path style="fill:#FFFFFF;" d="M295.947,361.553c-2.627,4.433-4.79,8.914-7.746,12.79c-2.106,2.761-4.487,2.452-5.492-1.542
			c-1.408-5.596-2.245-11.145,0.46-16.561c0.918-1.839,2.247-3.472,3.842-5.886c0,5.122-0.54,8.336,0.353,11.085
			C287.608,362.192,292.142,361.553,295.947,361.553z"/>
		<path style="fill:#FFFFFF;" d="M316.165,361.91c3.788-0.206,8.022,0.461,8.556-0.65c1.135-2.364,0.347-5.651,0.347-8.793
			c2.555,0.98,4.674,3.742,4.863,7.127c0.254,4.559-0.252,9.213-0.924,13.754c-0.511,3.452-3.241,3.556-4.944,1.286
			C321.054,370.625,318.719,366.11,316.165,361.91z"/>
		<path style="fill:#FFFFFF;" d="M311.01,420.621c-0.467,1.981-1.255,5.834-2.358,9.594c-0.232,0.79-1.668,1.784-2.464,1.714
			c-1.05-0.092-2.662-0.955-2.909-1.81c-1.083-3.764-2-7.612-2.522-11.491c-0.545-4.043,2.574-3.888,5.276-3.883
			C308.758,414.751,311.663,414.6,311.01,420.621z"/>
		<path style="fill:#FFFFFF;" d="M312.235,438.728c-4.385,0-8.207,0-12.029,0c-0.21-0.54-0.42-1.079-0.629-1.619
			c1.592-0.74,3.13-1.938,4.787-2.133C309.466,434.376,310.091,434.778,312.235,438.728z"/>
		<path style="fill:#FFFFFF;" d="M328.789,380.572c-2.546,3.064-5.093,6.128-7.865,9.463c-3.232-3.449-1.846-4.735,0.731-6.182
			c2.08-1.168,3.791-2.995,5.666-4.53C327.809,379.739,328.299,380.155,328.789,380.572z"/>
		<path style="fill:#FFFFFF;" d="M292.658,389.824c-4.926-2.618-8.086-5.237-8.153-10.362
			C286.121,383.332,293.392,382.62,292.658,389.824z"/>
	</g>
</g>
</svg>
