<?xml version="1.0" encoding="iso-8859-1"?>
<!-- Generator: Adobe Illustrator 25.0.0, SVG Export Plug-In . SVG Version: 6.00 Build 0)  -->
<svg version="1.1" id="Calque_1" xmlns="http://www.w3.org/2000/svg" xmlns:xlink="http://www.w3.org/1999/xlink" x="0px" y="0px"
	 viewBox="0 0 612 792" style="enable-background:new 0 0 612 792;" xml:space="preserve">
<g>
	<g>
		<path style="fill:#FFFFFF;" d="M246,446c0-33.333,0-66.667,0-100c40,0,80,0,120,0c0,33.333,0,66.667,0,100
			C326,446,286,446,246,446z M276.086,408.148c-0.051,10.36,7.99,18.14,18.418,18.094c2.146-0.009,4.282,1.227,6.448,1.329
			c3.085,0.145,6.657,0.681,9.181-0.602c3.466-1.762,3.387-5.614,2.334-9.3c-0.591-2.068-1.004-4.388-0.701-6.478
			c1.506-10.359-6.087-20.122-16.557-20.971C285.017,389.393,276.138,397.717,276.086,408.148z M303.9,382.23
			c0.003,6.335,3.505,11.444,9.012,13.554c5.528,2.118,11.579,0.64,15.475-3.782c3.896-4.421,4.504-10.486,1.861-15.847
			c-1.138-2.308-1.96-4.806-2.645-7.296c-1.777-6.462-9.717-9.45-14.095-4.569c-3.849,4.291-6.342,9.82-9.271,14.897
			C303.709,380.103,303.968,381.474,303.9,382.23z M335.903,405.466c-0.059-3.996-3.415-7.319-7.322-7.249
			c-3.84,0.068-7.28,3.633-7.212,7.472c0.071,3.939,3.477,7.231,7.434,7.181C332.803,412.82,335.964,409.523,335.903,405.466z
			 M288.602,383.334c-3.33-2.406-5.102-4.631-7.182-4.969c-3.154-0.513-5.279,1.717-5.27,5.074c0.009,3.385,2.254,5.541,5.338,5.034
			C283.557,388.132,285.302,385.825,288.602,383.334z"/>
		<path d="M276.086,408.148c0.052-10.431,8.931-18.755,19.124-17.928c10.47,0.849,18.062,10.612,16.557,20.971
			c-0.304,2.09,0.11,4.409,0.701,6.478c1.053,3.686,1.132,7.538-2.334,9.3c-2.524,1.283-6.096,0.747-9.181,0.602
			c-2.167-0.102-4.302-1.338-6.448-1.329C284.077,426.288,276.035,418.507,276.086,408.148z M308.082,409.121
			c-0.063-9.772-8.525-16.707-16.887-14.778c-7.657,1.766-12.497,8.856-11.191,16.396c1.272,7.349,7.847,12.149,15.635,11.536
			c2.259-0.178,4.625-1.805,6.72,1.21c0.687,0.989,3.639,0.404,5.556,0.539c0.063-1.923,0.268-3.856,0.147-5.767
			c-0.111-1.751-0.832-3.484-0.81-5.218C307.271,411.431,307.918,409.83,308.082,409.121z"/>
		<path d="M303.9,382.23c0.068-0.756-0.191-2.127,0.337-3.043c2.929-5.076,5.421-10.606,9.271-14.897
			c4.378-4.881,12.318-1.893,14.095,4.569c0.684,2.489,1.507,4.988,2.645,7.296c2.643,5.361,2.034,11.426-1.861,15.847
			c-3.896,4.422-9.946,5.9-15.475,3.782C307.405,393.674,303.903,388.565,303.9,382.23z M319.714,393.198
			c1.746-1.382,5.574-3.015,6.848-5.812c1.276-2.801,0.248-6.8-0.242-10.205c-0.325-2.261-1.193-4.568-2.344-6.548
			c-1.038-1.784-2.682-4.228-4.263-4.39c-1.498-0.154-3.459,2.098-4.852,3.624c-1.326,1.453-1.928,3.583-3.294,4.979
			c-3.181,3.249-4.623,6.832-3.029,11.238C310.117,390.447,313.48,392.509,319.714,393.198z"/>
		<path d="M335.903,405.466c0.06,4.057-3.101,7.354-7.1,7.404c-3.956,0.049-7.363-3.242-7.434-7.181
			c-0.069-3.84,3.372-7.404,7.212-7.472C332.488,398.147,335.844,401.47,335.903,405.466z M328.569,400.538
			c-1.551,2.479-3.1,3.878-3.071,5.244c0.023,1.102,2.173,3.189,2.984,3.013c1.366-0.296,3.231-1.948,3.371-3.199
			C331.989,404.373,330.23,402.94,328.569,400.538z"/>
		<path d="M288.602,383.334c-3.3,2.491-5.045,4.798-7.115,5.138c-3.084,0.507-5.329-1.649-5.338-5.034
			c-0.009-3.357,2.116-5.587,5.27-5.074C283.499,378.703,285.272,380.927,288.602,383.334z"/>
		<path style="fill:#FFFFFF;" d="M308.082,409.121c-0.164,0.709-0.811,2.31-0.832,3.918c-0.022,1.735,0.699,3.467,0.81,5.218
			c0.122,1.911-0.084,3.844-0.147,5.767c-1.916-0.135-4.869,0.45-5.556-0.539c-2.094-3.015-4.461-1.388-6.72-1.21
			c-7.788,0.613-14.363-4.188-15.635-11.536c-1.305-7.54,3.534-14.63,11.191-16.396
			C299.557,392.415,308.019,399.349,308.082,409.121z"/>
		<path style="fill:#FFFFFF;" d="M319.714,393.198c-6.234-0.689-9.597-2.751-11.176-7.115c-1.594-4.405-0.153-7.988,3.029-11.238
			c1.366-1.395,1.968-3.526,3.294-4.979c1.393-1.526,3.353-3.777,4.852-3.624c1.581,0.162,3.225,2.606,4.263,4.39
			c1.152,1.98,2.02,4.287,2.344,6.548c0.489,3.406,1.518,7.404,0.242,10.205C325.288,390.183,321.46,391.817,319.714,393.198z"/>
		<path style="fill:#FFFFFF;" d="M328.569,400.538c1.661,2.401,3.42,3.835,3.284,5.057c-0.14,1.251-2.005,2.903-3.371,3.199
			c-0.811,0.176-2.96-1.911-2.984-3.013C325.469,404.416,327.018,403.017,328.569,400.538z"/>
	</g>
</g>
</svg>
